<?xml version="1.0" encoding="utf-8"?>
<!-- Generator: Adobe Illustrator 16.0.0, SVG Export Plug-In . SVG Version: 6.00 Build 0)  -->
<!DOCTYPE svg PUBLIC "-//W3C//DTD SVG 1.1//EN" "http://www.w3.org/Graphics/SVG/1.1/DTD/svg11.dtd">
<svg version="1.1" id="Capa_1" xmlns="http://www.w3.org/2000/svg" xmlns:xlink="http://www.w3.org/1999/xlink" x="0px" y="0px"
	 width="319.425px" height="226.321px" viewBox="0 0 319.425 226.321" enable-background="new 0 0 319.425 226.321"
	 xml:space="preserve">
<g>
	<path fill="#E30613" d="M96.302,105.787l-2.358,4.086l-17.877-4.171l12.55,13.397l-2.358,4.085l-28.937-7.786l2.947-5.105
		l18.049,5.255l-13.169-13.707l2.114-3.663l18.456,4.551L72.163,89.691l2.948-5.107L96.302,105.787z"/>
	<path fill="#E30613" d="M114.335,74.554l-2.358,4.085l-17.878-4.17l12.551,13.396l-2.358,4.086l-28.938-7.785l2.948-5.107
		l18.049,5.256L83.182,70.607l2.114-3.662l18.455,4.55L90.196,58.457l2.948-5.106L114.335,74.554z"/>
	<path fill="#E30613" d="M132.368,43.32l-2.359,4.086l-17.877-4.172l12.551,13.397l-2.359,4.085l-28.938-7.785l2.948-5.105
		l18.049,5.255l-13.169-13.708l2.115-3.662l18.455,4.551l-13.556-13.038l2.948-5.106L132.368,43.32z"/>
</g>
<g>
	<g>
		<path d="M38.628,163.686v-0.727c-0.565,0.565-1.098,0.808-2.066,0.808c-0.952,0-1.646-0.242-2.147-0.743
			c-0.452-0.468-0.694-1.146-0.694-1.889c0-1.34,0.92-2.438,2.874-2.438h1.986v-0.42c0-0.92-0.452-1.324-1.566-1.324
			c-0.807,0-1.179,0.194-1.614,0.694l-1.34-1.308c0.823-0.903,1.63-1.162,3.035-1.162c2.357,0,3.584,1.001,3.584,2.971v5.537H38.628
			z M38.58,160.134h-1.663c-0.759,0-1.179,0.355-1.179,0.952c0,0.582,0.388,0.969,1.211,0.969c0.581,0,0.952-0.048,1.324-0.403
			c0.226-0.21,0.307-0.549,0.307-1.065V160.134z"/>
		<path d="M47.833,163.686v-5.085c0-1.146-0.726-1.534-1.388-1.534c-0.662,0-1.404,0.388-1.404,1.534v5.085h-2.099v-8.411h2.05
			v0.775c0.549-0.581,1.324-0.872,2.099-0.872c0.839,0,1.518,0.274,1.985,0.742c0.678,0.679,0.856,1.47,0.856,2.39v5.376H47.833z"/>
		<path d="M56.505,163.686v-0.727c-0.565,0.565-1.098,0.808-2.066,0.808c-0.952,0-1.646-0.242-2.147-0.743
			c-0.452-0.468-0.694-1.146-0.694-1.889c0-1.34,0.92-2.438,2.874-2.438h1.986v-0.42c0-0.92-0.452-1.324-1.566-1.324
			c-0.807,0-1.179,0.194-1.614,0.694l-1.34-1.308c0.823-0.903,1.63-1.162,3.035-1.162c2.357,0,3.584,1.001,3.584,2.971v5.537H56.505
			z M56.457,160.134h-1.663c-0.759,0-1.179,0.355-1.179,0.952c0,0.582,0.388,0.969,1.211,0.969c0.581,0,0.952-0.048,1.324-0.403
			c0.226-0.21,0.307-0.549,0.307-1.065V160.134z"/>
		<path d="M63.191,163.686c-1.728,0-2.454-1.211-2.454-2.405v-9.089h2.099v8.96c0,0.5,0.21,0.759,0.743,0.759h0.807v1.775H63.191z"
			/>
		<path d="M66.034,153.838v-1.711h2.147v1.711H66.034z M66.066,163.686v-8.411h2.099v8.411H66.066z"/>
		<path d="M69.926,163.686v-1.599l3.729-4.924h-3.52v-1.889h6.199v1.599l-3.777,4.924h3.777v1.889H69.926z"/>
		<path d="M82.537,163.686v-0.727c-0.565,0.565-1.098,0.808-2.066,0.808c-0.952,0-1.646-0.242-2.147-0.743
			c-0.452-0.468-0.694-1.146-0.694-1.889c0-1.34,0.92-2.438,2.874-2.438h1.986v-0.42c0-0.92-0.452-1.324-1.566-1.324
			c-0.807,0-1.179,0.194-1.614,0.694l-1.34-1.308c0.823-0.903,1.63-1.162,3.035-1.162c2.357,0,3.584,1.001,3.584,2.971v5.537H82.537
			z M82.488,160.134h-1.663c-0.759,0-1.179,0.355-1.179,0.952c0,0.582,0.388,0.969,1.211,0.969c0.581,0,0.952-0.048,1.324-0.403
			c0.226-0.21,0.307-0.549,0.307-1.065V160.134z"/>
		<path d="M91.418,157.567c-0.323-0.323-0.597-0.501-1.114-0.501c-0.646,0-1.356,0.484-1.356,1.55v5.069H86.85v-8.411h2.05v0.808
			c0.404-0.484,1.211-0.904,2.115-0.904c0.823,0,1.404,0.21,1.985,0.791L91.418,157.567z"/>
	</g>
	<g>
		<path fill-rule="evenodd" clip-rule="evenodd" d="M26.929,143.145c1.186,0.548,2.266,1.047,3.467,1.603
			c-2.882,5.289-5.701,10.46-8.583,15.749c-1.626-1.457-3.068-2.75-4.617-4.138c0.488-0.456,0.927-0.867,1.433-1.34
			c0.854,0.728,1.651,1.407,2.566,2.187C23.12,152.483,24.999,147.875,26.929,143.145z"/>
		<path fill-rule="evenodd" clip-rule="evenodd" d="M27.304,151.85c0,3.904,0,7.81,0,11.835c-4.009,0-8.048,0-12.167,0
			c0-4.479,0-8.93,0-13.489c2.641,0,5.288,0,7.934,0c0.073,0.115,0.146,0.229,0.218,0.344c-0.485,0.279-0.959,0.771-1.459,0.798
			c-1.78,0.098-3.569,0.038-5.429,0.038c0,3.751,0,7.327,0,11.021c3.173,0,6.34,0,9.498,0
			C26.719,158.881,25.077,155.128,27.304,151.85z"/>
	</g>
	<g>
		<path d="M40.13,189.723c-0.517,0.549-1.372,1.033-2.615,1.033s-2.083-0.484-2.599-1.033c-0.759-0.791-0.953-1.743-0.953-3.277
			c0-1.518,0.194-2.47,0.953-3.261c0.517-0.549,1.356-1.033,2.599-1.033s2.099,0.484,2.615,1.033
			c0.759,0.791,0.953,1.743,0.953,3.261C41.083,187.979,40.889,188.932,40.13,189.723z M38.5,184.411
			c-0.242-0.242-0.565-0.371-0.985-0.371s-0.727,0.129-0.969,0.371c-0.436,0.437-0.484,1.163-0.484,2.034
			c0,0.872,0.049,1.614,0.484,2.051c0.242,0.242,0.549,0.371,0.969,0.371s0.743-0.129,0.985-0.371
			c0.436-0.437,0.484-1.179,0.484-2.051C38.984,185.574,38.935,184.848,38.5,184.411z"/>
		<path d="M49.27,189.997c-0.468,0.469-1.227,0.759-2.05,0.759c-0.856,0-1.485-0.226-2.034-0.839v3.825h-2.099v-11.494h2.034v0.791
			c0.582-0.646,1.211-0.888,2.099-0.888c0.823,0,1.582,0.291,2.05,0.759c0.84,0.84,0.856,2.276,0.856,3.535
			C50.125,187.705,50.109,189.158,49.27,189.997z M46.606,184.04c-1.259,0-1.42,1.033-1.42,2.405c0,1.373,0.161,2.422,1.42,2.422
			s1.421-1.049,1.421-2.422C48.027,185.073,47.865,184.04,46.606,184.04z"/>
		<path d="M54.762,190.659c-1.711,0-2.438-1.211-2.438-2.405v-4.165h-0.888v-1.599h0.888v-2.486h2.099v2.486h1.485v1.599h-1.485
			v4.036c0,0.484,0.226,0.759,0.727,0.759h0.759v1.775H54.762z"/>
		<path d="M57.782,180.812v-1.711h2.147v1.711H57.782z M57.814,190.659v-8.411h2.099v8.411H57.814z"/>
		<path d="M72.038,190.659v-5.085c0-1.146-0.726-1.534-1.388-1.534c-0.646,0-1.404,0.388-1.404,1.485v5.134h-2.099v-5.085
			c0-1.146-0.726-1.534-1.388-1.534c-0.662,0-1.404,0.388-1.404,1.534v5.085h-2.099v-8.411h2.05v0.775
			c0.549-0.565,1.324-0.872,2.099-0.872c0.936,0,1.695,0.339,2.228,1.065c0.71-0.742,1.469-1.065,2.519-1.065
			c0.839,0,1.598,0.274,2.066,0.742c0.678,0.679,0.92,1.47,0.92,2.39v5.376H72.038z"/>
		<path d="M76.369,180.812v-1.711h2.147v1.711H76.369z M76.401,190.659v-8.411H78.5v8.411H76.401z"/>
		<path d="M80.261,190.659v-1.599l3.729-4.924h-3.52v-1.889h6.199v1.599l-3.777,4.924h3.777v1.889H80.261z"/>
		<path d="M92.872,190.659v-0.727c-0.565,0.565-1.098,0.808-2.066,0.808c-0.952,0-1.646-0.242-2.147-0.743
			c-0.452-0.468-0.694-1.146-0.694-1.889c0-1.34,0.92-2.438,2.874-2.438h1.986v-0.42c0-0.92-0.452-1.324-1.566-1.324
			c-0.807,0-1.179,0.194-1.614,0.694l-1.34-1.308c0.823-0.903,1.63-1.162,3.035-1.162c2.357,0,3.584,1.001,3.584,2.971v5.537H92.872
			z M92.823,187.107h-1.663c-0.759,0-1.179,0.355-1.179,0.952c0,0.582,0.388,0.969,1.211,0.969c0.581,0,0.952-0.048,1.324-0.403
			c0.226-0.21,0.307-0.549,0.307-1.065V187.107z"/>
		<path d="M101.753,184.541c-0.323-0.323-0.597-0.501-1.114-0.501c-0.646,0-1.356,0.484-1.356,1.55v5.069h-2.099v-8.411h2.05v0.808
			c0.404-0.484,1.211-0.904,2.115-0.904c0.823,0,1.404,0.21,1.985,0.791L101.753,184.541z"/>
	</g>
	<g>
		<path fill-rule="evenodd" clip-rule="evenodd" d="M26.929,170.119c1.186,0.548,2.266,1.048,3.467,1.603
			c-2.882,5.289-5.701,10.461-8.583,15.749c-1.626-1.457-3.068-2.748-4.617-4.136c0.488-0.457,0.927-0.868,1.433-1.342
			c0.854,0.728,1.651,1.407,2.566,2.187C23.12,179.458,24.999,174.85,26.929,170.119z"/>
		<path fill-rule="evenodd" clip-rule="evenodd" d="M27.304,178.824c0,3.905,0,7.811,0,11.836c-4.009,0-8.048,0-12.167,0
			c0-4.479,0-8.93,0-13.489c2.641,0,5.288,0,7.934,0c0.073,0.114,0.146,0.229,0.218,0.344c-0.485,0.278-0.959,0.77-1.459,0.797
			c-1.78,0.098-3.569,0.038-5.429,0.038c0,3.753,0,7.328,0,11.022c3.173,0,6.34,0,9.498,0
			C26.719,185.855,25.077,182.103,27.304,178.824z"/>
	</g>
	<g>
		<path d="M40.501,216.974c-0.468,0.469-1.227,0.759-2.05,0.759c-0.856,0-1.485-0.226-2.034-0.839v3.825h-2.099v-11.494h2.034v0.791
			c0.582-0.646,1.211-0.888,2.099-0.888c0.823,0,1.582,0.291,2.05,0.759c0.84,0.84,0.856,2.276,0.856,3.535
			C41.357,214.682,41.341,216.135,40.501,216.974z M37.837,211.017c-1.259,0-1.42,1.033-1.42,2.405c0,1.373,0.161,2.422,1.42,2.422
			s1.421-1.049,1.421-2.422C39.258,212.05,39.097,211.017,37.837,211.017z"/>
		<path d="M49.173,216.699c-0.517,0.549-1.372,1.033-2.615,1.033s-2.083-0.484-2.599-1.033c-0.759-0.791-0.953-1.743-0.953-3.277
			c0-1.518,0.194-2.47,0.953-3.261c0.517-0.549,1.356-1.033,2.599-1.033s2.099,0.484,2.615,1.033
			c0.759,0.791,0.953,1.743,0.953,3.261C50.126,214.956,49.932,215.908,49.173,216.699z M47.543,211.388
			c-0.242-0.242-0.565-0.371-0.985-0.371s-0.727,0.129-0.969,0.371c-0.436,0.437-0.484,1.163-0.484,2.034
			c0,0.872,0.048,1.614,0.484,2.051c0.242,0.242,0.549,0.371,0.969,0.371s0.743-0.129,0.985-0.371
			c0.436-0.437,0.484-1.179,0.484-2.051C48.027,212.551,47.979,211.824,47.543,211.388z"/>
		<path d="M54.891,217.732c-1.324,0-2.519-0.146-3.584-1.211l1.373-1.372c0.694,0.694,1.598,0.791,2.244,0.791
			c0.727,0,1.485-0.242,1.485-0.871c0-0.42-0.226-0.711-0.888-0.775l-1.324-0.129c-1.518-0.146-2.454-0.808-2.454-2.357
			c0-1.743,1.534-2.68,3.245-2.68c1.308,0,2.405,0.226,3.212,0.984l-1.292,1.308c-0.484-0.436-1.227-0.564-1.954-0.564
			c-0.839,0-1.194,0.388-1.194,0.807c0,0.308,0.129,0.662,0.872,0.727l1.324,0.13c1.663,0.161,2.502,1.049,2.502,2.47
			C58.458,216.845,56.876,217.732,54.891,217.732z"/>
		<path d="M60.188,207.788v-1.711h2.147v1.711H60.188z M60.221,217.636v-8.411h2.099v8.411H60.221z"/>
		<path d="M68.003,217.732c-1.679,0-3.761-0.904-3.761-4.311s2.083-4.294,3.761-4.294c1.163,0,2.034,0.355,2.777,1.13l-1.42,1.421
			c-0.436-0.468-0.807-0.662-1.356-0.662c-0.5,0-0.888,0.178-1.194,0.549c-0.323,0.404-0.468,0.969-0.468,1.856
			c0,0.889,0.146,1.47,0.468,1.873c0.307,0.371,0.694,0.549,1.194,0.549c0.549,0,0.92-0.193,1.356-0.662l1.42,1.404
			C70.037,217.361,69.166,217.732,68.003,217.732z"/>
		<path d="M72.38,207.788v-1.711h2.147v1.711H72.38z M72.413,217.636v-8.411h2.099v8.411H72.413z"/>
		<path d="M82.665,216.699c-0.517,0.549-1.372,1.033-2.615,1.033s-2.083-0.484-2.599-1.033c-0.759-0.791-0.953-1.743-0.953-3.277
			c0-1.518,0.194-2.47,0.953-3.261c0.517-0.549,1.356-1.033,2.599-1.033s2.099,0.484,2.615,1.033
			c0.759,0.791,0.953,1.743,0.953,3.261C83.618,214.956,83.424,215.908,82.665,216.699z M81.035,211.388
			c-0.242-0.242-0.565-0.371-0.985-0.371s-0.727,0.129-0.969,0.371c-0.436,0.437-0.484,1.163-0.484,2.034
			c0,0.872,0.049,1.614,0.484,2.051c0.242,0.242,0.549,0.371,0.969,0.371s0.743-0.129,0.985-0.371
			c0.436-0.437,0.484-1.179,0.484-2.051C81.519,212.551,81.47,211.824,81.035,211.388z"/>
		<path d="M90.514,217.636v-5.085c0-1.146-0.726-1.534-1.388-1.534c-0.662,0-1.404,0.388-1.404,1.534v5.085h-2.099v-8.411h2.05V210
			c0.549-0.581,1.324-0.872,2.099-0.872c0.839,0,1.518,0.274,1.985,0.742c0.678,0.679,0.856,1.47,0.856,2.39v5.376H90.514z"/>
		<path d="M99.186,217.636v-0.727c-0.565,0.565-1.098,0.808-2.066,0.808c-0.952,0-1.646-0.242-2.147-0.743
			c-0.452-0.468-0.694-1.146-0.694-1.889c0-1.34,0.92-2.438,2.874-2.438h1.986v-0.42c0-0.92-0.452-1.324-1.566-1.324
			c-0.807,0-1.179,0.194-1.614,0.694l-1.34-1.308c0.823-0.903,1.63-1.162,3.035-1.162c2.357,0,3.584,1.001,3.584,2.971v5.537H99.186
			z M99.137,214.084h-1.663c-0.759,0-1.179,0.355-1.179,0.952c0,0.582,0.388,0.969,1.211,0.969c0.581,0,0.952-0.048,1.324-0.403
			c0.226-0.21,0.307-0.549,0.307-1.065V214.084z"/>
		<path d="M108.067,211.518c-0.323-0.323-0.597-0.501-1.114-0.501c-0.646,0-1.356,0.484-1.356,1.55v5.069h-2.099v-8.411h2.05v0.808
			c0.404-0.484,1.211-0.904,2.115-0.904c0.823,0,1.404,0.21,1.985,0.791L108.067,211.518z"/>
	</g>
	<g>
		<path fill-rule="evenodd" clip-rule="evenodd" d="M26.929,197.095c1.186,0.548,2.266,1.047,3.467,1.603
			c-2.882,5.289-5.701,10.46-8.583,15.749c-1.626-1.457-3.068-2.749-4.617-4.137c0.488-0.457,0.927-0.868,1.433-1.341
			c0.854,0.728,1.651,1.407,2.566,2.187C23.12,206.434,24.999,201.825,26.929,197.095z"/>
		<path fill-rule="evenodd" clip-rule="evenodd" d="M27.304,205.8c0,3.905,0,7.81,0,11.835c-4.009,0-8.048,0-12.167,0
			c0-4.479,0-8.93,0-13.489c2.641,0,5.288,0,7.934,0c0.073,0.115,0.146,0.229,0.218,0.344c-0.485,0.279-0.959,0.771-1.459,0.798
			c-1.78,0.098-3.569,0.038-5.429,0.038c0,3.751,0,7.327,0,11.021c3.173,0,6.34,0,9.498,0
			C26.719,212.831,25.077,209.078,27.304,205.8z"/>
	</g>
</g>
<path fill="none" stroke="#000000" stroke-miterlimit="10" d="M182.891,137.41c0,0-28.057,7.193-49.64,7.913"/>
<path fill="none" stroke="#000000" stroke-miterlimit="10" d="M137.191,147.822c0,0-3.613-20.389-3.94-29.16"/>
<path fill="none" stroke="#000000" stroke-miterlimit="10" d="M137.191,151.853c0,0,20.151-1.66,37.932-4.03
	s9.957-2.499,9.957-2.499l0.474,10.797l-46.229,11.616L137.191,151.853z"/>
<path fill="none" stroke="#000000" stroke-miterlimit="10" d="M137.191,129.331c0,0,0.711-1.897,16.595-1.66
	s18.018-6.163,18.018-6.163s8.535-4.979,16.121,2.133"/>
<polyline fill="none" stroke="#000000" stroke-miterlimit="10" points="139.449,131.666 143.652,118.662 146.655,141.367 
	153.26,115.152 158.071,137.41 160.166,119.813 166.47,131.365 170.073,115.152 173.676,136.169 177.279,124.572 179.681,131.966 
	186.793,118.662 "/>
<line fill="none" stroke="#000000" stroke-miterlimit="10" x1="147.289" y1="150.939" x2="149.126" y2="165.273"/>
<line fill="none" stroke="#000000" stroke-miterlimit="10" x1="159.265" y1="150.939" x2="159.265" y2="162.726"/>
<line fill="none" stroke="#000000" stroke-miterlimit="10" x1="168.521" y1="148.66" x2="170.454" y2="159.914"/>
<line fill="none" stroke="#000000" stroke-miterlimit="10" x1="177.649" y1="158.106" x2="177.649" y2="147.822"/>
<line fill="none" stroke="#000000" stroke-miterlimit="10" x1="138.274" y1="159.914" x2="185.326" y2="150.939"/>
<g>
	<g>
		<path fill="#FFFFFF" d="M143.416,91.281c-3.264,0-6.379-0.014-9.494,0.009c-0.96,0.008-1.926,0.062-2.877,0.188
			c-5.191,0.686-8.571,4.5-8.57,9.639c0.001,18.993,0.002,37.985,0.005,56.978c0,0.501-0.005,1.002,0.019,1.502
			c0.216,4.494,2.76,7.969,6.869,9.125c1.272,0.358,2.661,0.419,3.998,0.422c14.022,0.028,28.045,0.018,42.068,0.017
			c0.346,0,0.693,0.006,1.039-0.011c5.943-0.277,9.969-4.232,9.969-9.806c0-19.031-0.011-38.062-0.004-57.094
			c0.002-2.077-0.35-4.069-1.295-5.919c-1.453-2.847-3.776-4.638-6.973-4.828c-3.879-0.231-7.774-0.161-11.662-0.22
			c-0.397-0.006-0.795-0.001-1.227-0.001c1.279-6.021-0.189-10.592-4.188-13.336c-4.115-2.823-9.143-3.03-13.212-0.149
			C143.253,81.071,141.801,85.635,143.416,91.281z"/>
		<path fill-rule="evenodd" clip-rule="evenodd" d="M143.416,91.281c-1.615-5.646-0.163-10.21,4.465-13.485
			c4.069-2.881,9.097-2.674,13.212,0.149c3.999,2.744,5.468,7.315,4.188,13.336c0.432,0,0.829-0.005,1.227,0.001
			c3.888,0.059,7.783-0.012,11.662,0.22c3.196,0.19,5.52,1.981,6.973,4.828c0.945,1.85,1.297,3.842,1.295,5.919
			c-0.007,19.031,0.004,38.062,0.004,57.094c0,5.573-4.025,9.528-9.969,9.806c-0.346,0.017-0.693,0.011-1.039,0.011
			c-14.023,0.001-28.046,0.012-42.068-0.017c-1.336-0.003-2.725-0.063-3.998-0.422c-4.108-1.156-6.652-4.631-6.869-9.125
			c-0.024-0.5-0.019-1.001-0.019-1.502c-0.003-18.992-0.004-37.984-0.005-56.978c0-5.139,3.379-8.953,8.57-9.639
			c0.951-0.125,1.917-0.18,2.877-0.188C137.037,91.268,140.152,91.281,143.416,91.281z M175.68,145.844c0-15.13,0-30.084,0-45.051
			c-4.416,0-8.736,0-13.191,0c1.868,3.558,3.676,7,5.51,10.491c-9.104,0-18.02,0-27.141,0c1.731-3.576,3.389-7.003,5.076-10.49
			c-4.368,0-8.547,0-12.729,0c0,19.542,0,39.005,0,58.517c0.261,0.023,0.447,0.054,0.634,0.054
			c9.281,0.003,18.562-0.005,27.844,0.018c0.774,0.002,0.979-0.27,0.973-1.007c-0.029-3.734-0.015-7.471-0.01-11.206
			c0-0.41,0.037-0.818,0.061-1.325C167.069,145.844,171.33,145.844,175.68,145.844z M158.332,87.286
			c-0.01-2.188-1.762-3.921-3.977-3.933c-2.234-0.013-4.078,1.807-4.053,3.996c0.025,2.166,1.812,3.922,4.001,3.931
			C156.567,91.291,158.342,89.531,158.332,87.286z"/>
		<path fill-rule="evenodd" clip-rule="evenodd" fill="#FFFFFF" d="M175.68,145.844c-4.35,0-8.61,0-12.975,0
			c-0.023,0.507-0.061,0.915-0.061,1.325c-0.005,3.735-0.02,7.472,0.01,11.206c0.006,0.737-0.198,1.009-0.973,1.007
			c-9.281-0.022-18.562-0.015-27.844-0.018c-0.187,0-0.373-0.03-0.634-0.054c0-19.512,0-38.975,0-58.517c4.183,0,8.361,0,12.729,0
			c-1.688,3.487-3.345,6.914-5.076,10.49c9.121,0,18.036,0,27.141,0c-1.834-3.491-3.642-6.934-5.51-10.491c4.455,0,8.775,0,13.191,0
			C175.68,115.76,175.68,130.714,175.68,145.844z"/>
		<path fill-rule="evenodd" clip-rule="evenodd" fill="#FFFFFF" d="M158.332,87.286c0.01,2.245-1.765,4.005-4.028,3.994
			c-2.188-0.009-3.976-1.765-4.001-3.931c-0.025-2.189,1.818-4.009,4.053-3.996C156.57,83.365,158.322,85.098,158.332,87.286z"/>
	</g>
	<g>
		<path fill="none" stroke="#000000" stroke-width="2" stroke-miterlimit="10" d="M168.887,128.853c0,0-19.354,4.961-34.24,5.458"/>
		<path fill="none" stroke="#000000" stroke-width="2" stroke-miterlimit="10" d="M137.364,136.034c0,0-2.492-14.063-2.718-20.114"
			/>
		<path fill="none" stroke="#000000" stroke-width="2" stroke-miterlimit="10" d="M137.364,138.814c0,0,13.899-1.146,26.165-2.78
			c12.264-1.635,6.867-1.724,6.867-1.724l0.328,7.447l-31.889,8.013L137.364,138.814z"/>
		<path fill="none" stroke="#000000" stroke-width="2" stroke-miterlimit="10" d="M137.364,123.279c0,0,0.491-1.309,11.446-1.146
			c10.957,0.164,12.429-4.251,12.429-4.251s5.888-3.435,11.12,1.472"/>
		<polyline fill="none" stroke="#000000" stroke-width="2" stroke-miterlimit="10" points="138.921,124.89 141.821,115.92 
			143.893,131.582 148.448,113.499 151.768,128.853 153.211,116.714 157.561,124.683 160.046,113.499 162.531,127.996 
			165.016,119.997 166.673,125.097 171.579,115.92 		"/>
		
			<line fill="none" stroke="#000000" stroke-width="2" stroke-miterlimit="10" x1="144.33" y1="138.185" x2="145.597" y2="148.071"/>
		<line fill="none" stroke="#000000" stroke-width="2" stroke-miterlimit="10" x1="152.59" y1="138.185" x2="152.59" y2="146.314"/>
		
			<line fill="none" stroke="#000000" stroke-width="2" stroke-miterlimit="10" x1="158.975" y1="136.612" x2="160.309" y2="144.375"/>
		
			<line fill="none" stroke="#000000" stroke-width="2" stroke-miterlimit="10" x1="165.271" y1="143.128" x2="165.271" y2="136.034"/>
		
			<line fill="none" stroke="#000000" stroke-width="2" stroke-miterlimit="10" x1="138.111" y1="144.375" x2="170.566" y2="138.185"/>
	</g>
	<g>
		<path fill="#FFFFFF" d="M193.664,90.793c-0.215,0.216-0.381,0.382-0.549,0.549c-9.125,9.125-18.251,18.249-27.368,27.383
			c-0.28,0.28-0.518,0.636-0.679,0.999c-0.953,2.158-1.88,4.329-2.813,6.496c-0.09,0.21-0.163,0.426-0.287,0.752
			c0.269-0.091,0.423-0.134,0.567-0.195c2.263-0.956,4.529-1.906,6.783-2.883c0.318-0.138,0.615-0.374,0.865-0.622
			c9.148-9.138,18.289-18.28,27.432-27.423c0.18-0.18,0.359-0.359,0.553-0.552C196.644,93.771,195.196,92.325,193.664,90.793z"/>
		<path fill="#FFFFFF" d="M200.088,93.304c1.391-1.39,2.729-2.729,4.071-4.07c-1.495-1.495-2.954-2.954-4.438-4.438
			c-1.367,1.367-2.704,2.705-4.071,4.07C197.141,90.355,198.6,91.814,200.088,93.304z"/>
		<path fill-rule="evenodd" clip-rule="evenodd" d="M193.664,90.793c1.532,1.532,2.979,2.979,4.504,4.504
			c-0.193,0.192-0.373,0.372-0.553,0.552c-9.143,9.143-18.283,18.285-27.432,27.423c-0.25,0.248-0.547,0.484-0.865,0.622
			c-2.254,0.977-4.521,1.927-6.783,2.883c-0.145,0.062-0.299,0.104-0.567,0.195c0.124-0.326,0.197-0.542,0.287-0.752
			c0.934-2.167,1.86-4.338,2.813-6.496c0.161-0.363,0.398-0.719,0.679-0.999c9.117-9.134,18.243-18.258,27.368-27.383
			C193.283,91.175,193.449,91.009,193.664,90.793z"/>
		<path fill-rule="evenodd" clip-rule="evenodd" d="M200.088,93.304c-1.488-1.489-2.947-2.948-4.438-4.438
			c1.367-1.365,2.704-2.703,4.071-4.07c1.483,1.483,2.942,2.942,4.438,4.438C202.816,90.575,201.479,91.914,200.088,93.304z"/>
	</g>
</g>
<g>
	<g>
		<path fill="#FFFFFF" d="M243.143,92.631c-3.471,3.516-6.641,7.087-10.2,10.216c-2.589,2.275-1.544,4.85-1.751,7.369
			c0.168,0.104,0.336,0.21,0.504,0.314c3.804-3.872,7.608-7.744,11.457-11.663c2.656,2.945,5.282,5.856,7.982,8.851
			c3.624-4.729,7.107-9.276,10.668-13.922c2.94,3.301,5.728,6.427,8.57,9.619c6.263-5.707,12.435-11.33,18.916-17.236
			c1.427,1.532,2.799,3.006,4.281,4.601c0-3.987,0-7.753,0-11.5c-3.89,0-7.68,0-11.47,0c-0.075,0.126-0.151,0.251-0.228,0.377
			c1.355,1.304,2.711,2.606,4.127,3.968c-5.107,4.643-10.176,9.247-15.313,13.917c-3.054-3.435-6.036-6.785-9.122-10.255
			c-3.604,4.699-7.119,9.286-10.686,13.938C248.299,98.358,245.824,95.607,243.143,92.631z M291.199,117.829c0-0.689,0-1.23,0-1.772
			c0-7.246-0.096-14.494,0.059-21.737c0.047-2.162-0.986-3.266-2.419-4.251c-1.706,0.771-2.144,2.01-2.12,3.765
			c0.099,7.445,0.042,14.892,0.042,22.338c0,0.528,0,1.057,0,1.658C288.287,117.829,289.618,117.829,291.199,117.829z
			 M281.696,117.822c0-7.157,0-14.127,0-21.369c-0.917,0.914-1.605,1.696-2.392,2.363c-0.987,0.838-1.334,1.809-1.308,3.12
			c0.083,4.245,0.031,8.494,0.031,12.742c0,1.03,0,2.062,0,3.144C279.342,117.822,280.47,117.822,281.696,117.822z M259.3,117.818
			c1.336,0,2.465,0,3.671,0c0.022-0.52,0.059-0.96,0.059-1.4c0.004-5.296,0.039-10.593-0.031-15.888
			c-0.012-0.885-0.486-1.762-0.747-2.643c-0.191-0.007-0.383-0.012-0.573-0.019c-0.793,1.353-2.197,2.674-2.27,4.064
			C259.137,107.16,259.3,112.407,259.3,117.818z M242.858,102.441c-0.802,1.026-2.181,1.983-2.247,3.022
			c-0.26,4.068-0.106,8.164-0.106,12.301c1.548,0,2.953,0,4.439,0c0-3.883-0.089-7.63,0.04-11.369
			C245.043,104.708,244.494,103.531,242.858,102.441z M272.279,117.813c0-4.253,0-8.414,0-12.805
			c-0.807,0.749-1.44,1.336-2.075,1.926c-0.496-0.556-0.881-0.986-1.434-1.605c0,4.311,0,8.368,0,12.484
			C269.993,117.813,271.123,117.813,272.279,117.813z M250.331,110.298c-0.111,0.077-0.224,0.155-0.335,0.233
			c0,2.41,0,4.821,0,7.251c1.489,0,2.855,0,4.197,0c0-3.14,0-6.155,0-9.48c-1.018,1.261-1.845,2.285-2.898,3.59
			C250.905,111.247,250.617,110.772,250.331,110.298z M235.473,110.424c-3.7,2.183-4.73,4.021-4.155,7.373c1.358,0,2.723,0,4.155,0
			C235.473,115.286,235.473,112.882,235.473,110.424z"/>
		<path fill-rule="evenodd" clip-rule="evenodd" d="M243.143,92.631c2.682,2.977,5.156,5.728,7.736,8.593
			c3.566-4.651,7.082-9.238,10.686-13.938c3.086,3.47,6.068,6.82,9.122,10.255c5.138-4.67,10.206-9.274,15.313-13.917
			c-1.416-1.361-2.771-2.664-4.127-3.968c0.076-0.126,0.152-0.251,0.228-0.377c3.79,0,7.58,0,11.47,0c0,3.747,0,7.513,0,11.5
			c-1.482-1.595-2.854-3.068-4.281-4.601c-6.481,5.906-12.653,11.529-18.916,17.236c-2.843-3.192-5.63-6.318-8.57-9.619
			c-3.561,4.646-7.044,9.192-10.668,13.922c-2.7-2.994-5.326-5.905-7.982-8.851c-3.849,3.919-7.653,7.791-11.457,11.663
			c-0.168-0.104-0.336-0.21-0.504-0.314c0.207-2.52-0.838-5.094,1.751-7.369C236.502,99.718,239.672,96.146,243.143,92.631z"/>
		<path fill-rule="evenodd" clip-rule="evenodd" d="M291.199,117.829c-1.581,0-2.912,0-4.438,0c0-0.602,0-1.13,0-1.658
			c0-7.446,0.057-14.893-0.042-22.338c-0.023-1.755,0.414-2.993,2.12-3.765c1.433,0.985,2.466,2.089,2.419,4.251
			c-0.154,7.243-0.059,14.491-0.059,21.737C291.199,116.599,291.199,117.14,291.199,117.829z"/>
		<path fill-rule="evenodd" clip-rule="evenodd" d="M281.696,117.822c-1.227,0-2.354,0-3.668,0c0-1.082,0-2.113,0-3.144
			c0-4.248,0.052-8.497-0.031-12.742c-0.026-1.312,0.32-2.282,1.308-3.12c0.786-0.667,1.475-1.449,2.392-2.363
			C281.696,103.695,281.696,110.665,281.696,117.822z"/>
		<path fill-rule="evenodd" clip-rule="evenodd" d="M259.3,117.818c0-5.411-0.163-10.658,0.108-15.885
			c0.072-1.391,1.477-2.712,2.27-4.064c0.19,0.007,0.382,0.012,0.573,0.019c0.261,0.881,0.735,1.758,0.747,2.643
			c0.07,5.295,0.035,10.592,0.031,15.888c0,0.44-0.036,0.881-0.059,1.4C261.765,117.818,260.636,117.818,259.3,117.818z"/>
		<path fill-rule="evenodd" clip-rule="evenodd" d="M242.858,102.441c1.636,1.09,2.185,2.267,2.126,3.954
			c-0.129,3.739-0.04,7.486-0.04,11.369c-1.486,0-2.892,0-4.439,0c0-4.137-0.153-8.232,0.106-12.301
			C240.678,104.425,242.057,103.468,242.858,102.441z"/>
		<path fill-rule="evenodd" clip-rule="evenodd" d="M272.279,117.813c-1.156,0-2.286,0-3.509,0c0-4.116,0-8.174,0-12.484
			c0.553,0.619,0.938,1.05,1.434,1.605c0.635-0.59,1.269-1.177,2.075-1.926C272.279,109.399,272.279,113.561,272.279,117.813z"/>
		<path fill-rule="evenodd" clip-rule="evenodd" d="M250.331,110.298c0.286,0.475,0.574,0.949,0.964,1.594
			c1.054-1.305,1.881-2.329,2.898-3.59c0,3.325,0,6.341,0,9.48c-1.342,0-2.708,0-4.197,0c0-2.43,0-4.841,0-7.251
			C250.107,110.453,250.22,110.375,250.331,110.298z"/>
		<path fill-rule="evenodd" clip-rule="evenodd" d="M235.473,110.424c0,2.458,0,4.862,0,7.373c-1.433,0-2.797,0-4.155,0
			C230.742,114.445,231.772,112.606,235.473,110.424z"/>
	</g>
	<g>
		<path fill-rule="evenodd" clip-rule="evenodd" fill="#E30613" d="M300.967,78.746c-0.239,0-0.478,0-0.661,0
			c-0.6-3.02-2.321-4.802-5.344-5.31c0-0.466,0-0.927,0-1.404c-0.365,0-0.696,0-1.066,0c0,0.248,0,0.478,0,0.708
			c0,0.24,0,0.48,0,0.697c-3.046,0.526-4.758,2.318-5.339,5.321c-0.438,0-0.908,0-1.379,0c0,0.37,0,0.693,0,1.062
			c0.484,0,0.954,0,1.437,0c0.104,1.447,0.767,2.597,1.708,3.584c0.955,1.003,2.171,1.529,3.581,1.694c0,0.491,0,0.962,0,1.427
			c0.376,0,0.706,0,1.069,0c0-0.486,0-0.948,0-1.401c3.043-0.516,4.761-2.318,5.335-5.317c0.444,0,0.906,0,1.372,0
			c0-0.366,0-0.697,0-1.062C301.428,78.746,301.197,78.746,300.967,78.746z M299.13,79.812c0.058,1.447-1.6,4.024-4.163,4.176
			c0-0.611,0-1.223,0-1.869c-0.323,0-0.603-0.02-0.875,0.014c-0.076,0.01-0.184,0.179-0.188,0.278
			c-0.019,0.521-0.009,1.042-0.009,1.564c-1.997-0.026-4.189-2.205-4.174-4.154c0.61,0,1.222,0,1.853,0c0-0.373,0-0.704,0-1.077
			c-0.634,0-1.246,0-1.855,0c0.009-1.504,1.593-3.967,4.179-4.175c0,0.627,0,1.228,0,1.854c0.366,0,0.696,0,1.071,0
			c0-0.622,0-1.234,0-1.847c2.394,0.154,4.1,2.426,4.189,4.159c-0.612,0-1.223,0-1.861,0c0,0.373,0,0.702,0,1.077
			C297.911,79.812,298.521,79.812,299.13,79.812z"/>
		<path fill-rule="evenodd" clip-rule="evenodd" fill="#E30613" d="M295.55,79.294c-0.004,0.605-0.511,1.104-1.12,1.103
			c-0.622-0.002-1.128-0.521-1.115-1.142c0.013-0.602,0.534-1.101,1.138-1.085C295.066,78.185,295.556,78.685,295.55,79.294z"/>
	</g>
	<path fill="none" stroke="#000000" stroke-width="7.121" stroke-miterlimit="10" d="M225.906,147.865l80.507-4.711V67.04
		c0,0-8.051,5.855-34.399,0c-26.347-5.855-51.229,3.603-51.229,3.603L225.906,147.865z"/>
	<g>
		<g>
			<path fill="none" stroke="#E30613" stroke-width="3.2561" stroke-miterlimit="10" d="M259.251,39.706
				c0,0,28.31,9.633,33.615,26.546"/>
			<g>
				<polygon fill="#E30613" points="288.509,65.805 293.715,72.032 296.507,64.411 				"/>
			</g>
		</g>
	</g>
</g>
<g>
	<g>
		<path fill="#FFFFFF" d="M240.98,46.885c0.922-1.179,1.214-2.628,1.36-4.234c0.11-1.228,0.608-2.691,1.451-3.532
			c4.647-4.646,6.552-13.846,0.515-20.812c-3.238-3.732-7.43-5.234-12.264-4.102c-7.175,1.682-11.743,9.332-10.34,16.831
			c0.625,3.335,2.248,6.066,4.482,8.559c0.82,0.915,1.411,2.106,1.858,3.269c0.546,1.415,0.831,2.926,1.258,4.498
			c0,0.594-0.062,1.368,0.017,2.124c0.087,0.818,0.121,1.729,0.519,2.397c0.398,0.67,1.202,1.112,1.853,1.619
			c1.862,1.442,4.767,2.312,8.313-1.129c0.86-0.836,1.11-2.37,1.455-3.634C241.59,48.265,241.194,47.645,240.98,46.885z
			 M233.134,8.56c0.057,0,0.111,0,0.165,0c0,0.636-0.009,1.276,0.004,1.913c0.018,1.008,0.561,1.56,1.545,1.614
			c0.938,0.052,1.596-0.637,1.586-1.704c-0.008-1.316-0.093-2.632-0.158-3.947c-0.05-0.964-0.636-1.486-1.538-1.491
			c-0.976-0.005-1.539,0.599-1.595,1.582C233.104,7.202,233.134,7.881,233.134,8.56z M254.362,17.171
			c0.04-1.535-1.278-2.271-2.478-1.604c-1.145,0.634-2.247,1.345-3.335,2.073c-0.792,0.531-1.064,1.277-0.562,2.165
			c0.439,0.775,1.375,0.975,2.291,0.442c1.098-0.635,2.188-1.29,3.224-2.022C253.918,17.931,254.174,17.41,254.362,17.171z
			 M224.636,7.751c-1.571,0.009-2.271,1.21-1.625,2.374c0.651,1.178,1.384,2.313,2.129,3.434c0.546,0.822,1.348,0.995,2.174,0.479
			c0.846-0.53,0.959-1.33,0.456-2.173c-0.669-1.121-1.335-2.251-2.092-3.316C225.39,8.143,224.854,7.912,224.636,7.751z
			 M243.553,14.399c0.23-0.19,0.792-0.469,1.077-0.92c0.696-1.113,1.253-2.312,1.89-3.463c0.494-0.892,0.152-1.6-0.566-2.067
			c-0.756-0.492-1.601-0.373-2.091,0.437c-0.758,1.261-1.48,2.558-2.075,3.9C241.335,13.31,242.128,14.371,243.553,14.399z
			 M216.421,15.279c-0.339,0.324-0.97,0.664-1.13,1.157c-0.148,0.45,0.033,1.342,0.378,1.564c1.323,0.858,2.736,1.599,4.184,2.234
			c0.747,0.328,1.527,0.03,1.882-0.8c0.343-0.806,0.101-1.512-0.66-1.945c-1.171-0.671-2.371-1.291-3.572-1.913
			C217.265,15.454,216.976,15.428,216.421,15.279z M215.807,28.879c0.003,0.021,0.005,0.041,0.006,0.063
			c0.908-0.094,1.878-0.03,2.7-0.345c0.483-0.184,1.004-0.97,1.01-1.49c0.005-0.45-0.667-1.27-1.082-1.298
			c-1.618-0.112-3.257-0.034-4.881,0.093c-0.841,0.067-1.197,0.756-1.149,1.562c0.049,0.822,0.534,1.334,1.364,1.403
			C214.447,28.921,215.127,28.879,215.807,28.879z M253.873,28.918c0.534-0.058,1.468,0.013,2.245-0.305
			c0.472-0.194,0.964-0.99,0.958-1.507c-0.007-0.454-0.673-1.252-1.095-1.282c-1.579-0.115-3.181-0.037-4.767,0.082
			c-0.895,0.068-1.308,0.77-1.237,1.618c0.073,0.867,0.635,1.356,1.521,1.388C252.176,28.938,252.854,28.918,253.873,28.918z"/>
		<path fill-rule="evenodd" clip-rule="evenodd" d="M240.98,46.885c0.214,0.76,0.609,1.38,0.478,1.854
			c-0.345,1.264-0.595,2.798-1.455,3.634c-3.547,3.441-6.451,2.571-8.313,1.129c-0.65-0.507-1.454-0.949-1.853-1.619
			c-0.397-0.669-0.432-1.579-0.519-2.397c-0.078-0.756-0.017-1.53-0.017-2.124c-0.427-1.572-0.712-3.083-1.258-4.498
			c-0.447-1.162-1.038-2.354-1.858-3.269c-2.234-2.492-3.857-5.224-4.482-8.559c-1.403-7.499,3.165-15.149,10.34-16.831
			c4.834-1.133,9.025,0.369,12.264,4.102c6.037,6.966,4.133,16.165-0.515,20.812c-0.843,0.841-1.341,2.305-1.451,3.532
			C242.194,44.257,241.902,45.706,240.98,46.885z M245.038,28.082c-0.019-2.789-0.979-5.555-3.172-7.965
			c-2.101-2.308-4.761-3.389-7.922-3.134c-5.144,0.415-8.348,4.788-9.212,9.051c-0.818,4.04,0.373,7.55,3.041,10.623
			c1.758,2.027,3.429,4.081,3.494,7.002c0.023,1.011,0.713,1.781,1.88,1.794c1.31,0.013,2.625,0.051,3.93-0.042
			c1.586-0.112,2.197-0.675,2.152-2.269c-0.078-2.665,1.028-4.75,2.697-6.685C243.878,34.19,245.12,31.605,245.038,28.082z"/>
		<path fill-rule="evenodd" clip-rule="evenodd" fill="#E30613" d="M233.134,8.56c0-0.679-0.03-1.357,0.009-2.033
			c0.056-0.983,0.619-1.587,1.595-1.582c0.902,0.005,1.488,0.527,1.538,1.491c0.065,1.315,0.15,2.631,0.158,3.947
			c0.01,1.067-0.648,1.756-1.586,1.704c-0.984-0.055-1.527-0.606-1.545-1.614c-0.013-0.637-0.004-1.277-0.004-1.913
			C233.245,8.56,233.19,8.56,233.134,8.56z"/>
		<path fill-rule="evenodd" clip-rule="evenodd" fill="#E30613" d="M254.362,17.171c-0.188,0.239-0.444,0.76-0.86,1.054
			c-1.035,0.732-2.126,1.388-3.224,2.022c-0.916,0.532-1.852,0.333-2.291-0.442c-0.502-0.888-0.229-1.634,0.562-2.165
			c1.088-0.729,2.19-1.439,3.335-2.073C253.084,14.9,254.402,15.636,254.362,17.171z"/>
		<path fill-rule="evenodd" clip-rule="evenodd" fill="#E30613" d="M224.636,7.751c0.219,0.161,0.754,0.392,1.042,0.798
			c0.757,1.065,1.423,2.195,2.092,3.316c0.503,0.843,0.39,1.643-0.456,2.173c-0.826,0.516-1.628,0.343-2.174-0.479
			c-0.745-1.12-1.478-2.256-2.129-3.434C222.365,8.961,223.064,7.76,224.636,7.751z"/>
		<path fill-rule="evenodd" clip-rule="evenodd" fill="#E30613" d="M243.553,14.399c-1.425-0.028-2.218-1.09-1.766-2.113
			c0.595-1.343,1.317-2.64,2.075-3.9c0.49-0.81,1.335-0.929,2.091-0.437c0.719,0.468,1.061,1.176,0.566,2.067
			c-0.637,1.151-1.193,2.35-1.89,3.463C244.345,13.931,243.783,14.209,243.553,14.399z"/>
		<path fill-rule="evenodd" clip-rule="evenodd" fill="#E30613" d="M216.421,15.279c0.555,0.148,0.844,0.175,1.081,0.298
			c1.201,0.622,2.401,1.242,3.572,1.913c0.761,0.434,1.003,1.14,0.66,1.945c-0.354,0.83-1.135,1.128-1.882,0.8
			c-1.447-0.636-2.86-1.376-4.184-2.234c-0.345-0.223-0.526-1.114-0.378-1.564C215.451,15.943,216.082,15.604,216.421,15.279z"/>
		<path fill-rule="evenodd" clip-rule="evenodd" fill="#E30613" d="M215.807,28.879c-0.68,0-1.359,0.042-2.032-0.012
			c-0.83-0.069-1.315-0.581-1.364-1.403c-0.048-0.806,0.309-1.494,1.149-1.562c1.624-0.127,3.263-0.205,4.881-0.093
			c0.415,0.028,1.087,0.848,1.082,1.298c-0.006,0.521-0.526,1.307-1.01,1.49c-0.822,0.314-1.792,0.251-2.7,0.345
			C215.812,28.92,215.81,28.899,215.807,28.879z"/>
		<path fill-rule="evenodd" clip-rule="evenodd" fill="#E30613" d="M253.873,28.918c-1.02,0-1.697,0.02-2.375-0.006
			c-0.886-0.031-1.447-0.521-1.521-1.388c-0.07-0.849,0.343-1.55,1.237-1.618c1.586-0.119,3.188-0.197,4.767-0.082
			c0.422,0.03,1.088,0.828,1.095,1.282c0.006,0.517-0.486,1.312-0.958,1.507C255.341,28.931,254.407,28.86,253.873,28.918z"/>
		<path fill-rule="evenodd" clip-rule="evenodd" fill="#FFFFFF" d="M245.038,28.082c0.082,3.523-1.16,6.108-3.111,8.376
			c-1.669,1.935-2.775,4.02-2.697,6.685c0.045,1.594-0.566,2.156-2.152,2.269c-1.305,0.093-2.62,0.055-3.93,0.042
			c-1.167-0.013-1.856-0.783-1.88-1.794c-0.065-2.921-1.736-4.975-3.494-7.002c-2.668-3.073-3.859-6.583-3.041-10.623
			c0.864-4.263,4.068-8.636,9.212-9.051c3.161-0.255,5.821,0.826,7.922,3.134C244.059,22.527,245.02,25.293,245.038,28.082z"/>
	</g>
	<g>
		<g>
			<g>
				<path fill="#E30613" d="M234.872,25.679v0.638c0.443-0.491,0.946-0.736,1.51-0.736c0.313,0,0.604,0.081,0.873,0.242
					c0.269,0.162,0.473,0.385,0.612,0.666c0.141,0.281,0.211,0.728,0.211,1.339v2.868h-0.992v-2.858
					c0-0.512-0.079-0.878-0.234-1.098c-0.156-0.221-0.419-0.33-0.786-0.33c-0.469,0-0.867,0.233-1.193,0.703v3.583h-1.015v-5.017
					H234.872z"/>
			</g>
			<g>
				<circle fill="none" stroke="#FFFFFF" stroke-width="0.9426" stroke-miterlimit="10" cx="228.479" cy="28.15" r="2.357"/>
				
					<line fill="none" stroke="#1D1D1B" stroke-width="0.9426" stroke-miterlimit="10" x1="230.836" y1="25.548" x2="230.836" y2="28.15"/>
				
					<line fill="none" stroke="#E30613" stroke-width="0.9426" stroke-miterlimit="10" x1="243.436" y1="28.138" x2="243.436" y2="30.74"/>
			</g>
			<g>
				<circle fill="none" stroke="#E30613" stroke-width="0.9426" stroke-miterlimit="10" cx="241.079" cy="27.924" r="2.357"/>
				<path fill="none" stroke="#E30613" stroke-width="0.9426" stroke-miterlimit="10" d="M233.191,23.191
					c-1.302,0-2.355,1.056-2.355,2.356"/>
				<circle fill="none" stroke="#E30613" stroke-width="0.9426" stroke-miterlimit="10" cx="228.479" cy="28.15" r="2.357"/>
				
					<line fill="none" stroke="#E30613" stroke-width="0.9426" stroke-miterlimit="10" x1="230.836" y1="25.548" x2="230.836" y2="28.15"/>
				<path fill="none" stroke="#E30613" stroke-width="0.9426" stroke-miterlimit="10" d="M241.247,32.969
					c1.223-0.086,2.188-1.105,2.188-2.35"/>
			</g>
			<g>
				<rect x="231.495" y="26.85" fill="#E30613" width="0.992" height="3.846"/>
				<path fill="#E30613" d="M231.983,25.679c0.139,0,0.257,0.047,0.356,0.143c0.098,0.096,0.147,0.213,0.147,0.352
					c0,0.135-0.05,0.253-0.147,0.352c-0.1,0.098-0.218,0.147-0.356,0.147c-0.13,0-0.244-0.05-0.343-0.15
					c-0.099-0.1-0.148-0.217-0.148-0.349c0-0.13,0.05-0.244,0.148-0.344C231.739,25.729,231.854,25.679,231.983,25.679z"/>
			</g>
			<g>
				<rect x="232.676" y="26.85" fill="#E30613" width="0.993" height="3.846"/>
				<path fill="#E30613" d="M233.163,25.679c0.14,0,0.258,0.047,0.356,0.143s0.148,0.213,0.148,0.352
					c0,0.135-0.05,0.253-0.148,0.352c-0.099,0.098-0.217,0.147-0.356,0.147c-0.129,0-0.242-0.05-0.341-0.15
					c-0.1-0.1-0.147-0.217-0.147-0.349c0-0.13,0.048-0.244,0.147-0.344C232.921,25.729,233.034,25.679,233.163,25.679z"/>
			</g>
		</g>
	</g>
</g>
<g>
	<path fill="#FFFFFF" d="M215.792,176.846c-0.066,0.193-0.113,0.312-0.148,0.436c-1.896,6.545,3.696,13.317,10.5,12.703
		c0.436-0.04,0.749,0.029,1.078,0.356c10.469,10.425,20.948,20.841,31.43,31.252c1.708,1.697,3.772,2.268,6.089,1.676
		c2.342-0.598,3.822-2.187,4.449-4.476c0.658-2.405-0.188-4.431-1.905-6.139c-5.868-5.839-11.739-11.676-17.61-17.512
		c-4.543-4.517-9.09-9.028-13.623-13.556c-0.195-0.195-0.388-0.528-0.371-0.782c0.426-6.034-3.98-10.933-10.023-11.045
		c-1.049-0.02-2.102,0.208-3.153,0.321c-0.017,0.088-0.035,0.175-0.052,0.262c1.299,1.279,2.628,2.528,3.882,3.85
		c0.581,0.613,1.114,1.316,1.489,2.069c0.559,1.12,0.676,2.337-0.206,3.372c-0.728,0.855-1.553,1.635-2.384,2.394
		c-0.263,0.24-0.671,0.377-1.034,0.441c-1.656,0.293-2.999-0.387-4.156-1.484c-1.26-1.194-2.477-2.435-3.715-3.653
		C216.173,177.18,216.007,177.04,215.792,176.846z M233.177,198.118c-0.197,0.188-0.361,0.341-0.52,0.498
		c-5.054,5.024-10.091,10.066-15.174,15.062c-1.083,1.063-1.394,2.263-0.99,3.628c1.035,3.502,3.378,5.799,6.817,6.915
		c1.419,0.46,2.723,0.185,3.882-0.987c4.981-5.033,10.028-10.001,15.05-14.994c0.187-0.186,0.365-0.381,0.456-0.477
		c-0.708-0.726-1.376-1.412-2.101-2.156c-0.114,0.136-0.247,0.319-0.406,0.479c-4.685,4.66-9.373,9.317-14.06,13.976
		c-0.128,0.127-0.249,0.263-0.386,0.38c-0.493,0.423-1.143,0.351-1.539-0.165c-0.408-0.531-0.332-0.95,0.302-1.581
		c4.718-4.69,9.437-9.381,14.162-14.064c0.174-0.173,0.414-0.278,0.493-0.331c-0.901-0.92-1.679-1.714-2.569-2.623
		c-3.085,3.135-6.211,6.323-9.352,9.497c-1.745,1.763-3.513,3.503-5.276,5.248c-0.62,0.614-1.4,0.51-1.795-0.22
		c-0.335-0.621,0.037-1.014,0.435-1.409c4.703-4.674,9.403-9.352,14.112-14.02c0.188-0.187,0.461-0.288,0.68-0.42
		C234.546,199.496,233.883,198.828,233.177,198.118z M250.855,194.281c1.034-1.054,2.112-2.025,3.038-3.126
		c1.419-1.689,3.118-2.8,5.332-3.07c0.31-0.038,0.633-0.107,0.909-0.245c0.324-0.161,0.687-0.352,0.888-0.633
		c2.682-3.761,5.338-7.539,8-11.314c0.124-0.176,0.23-0.366,0.26-0.414c-1.26-1.28-2.455-2.494-3.673-3.73
		c-0.03,0.017-0.112,0.053-0.185,0.104c-3.937,2.744-7.875,5.485-11.801,8.246c-0.213,0.149-0.378,0.437-0.457,0.693
		c-0.287,0.947-0.561,1.901-0.777,2.866c-0.174,0.774-0.524,1.388-1.109,1.94c-1.409,1.33-2.761,2.721-4.135,4.09
		c-0.154,0.153-0.295,0.321-0.388,0.422C248.118,191.494,249.441,192.842,250.855,194.281z"/>
	<path fill-rule="evenodd" clip-rule="evenodd" d="M215.792,176.846c0.214,0.194,0.381,0.334,0.535,0.485
		c1.238,1.219,2.455,2.459,3.715,3.653c1.157,1.098,2.5,1.777,4.156,1.484c0.363-0.064,0.771-0.201,1.034-0.441
		c0.831-0.759,1.656-1.538,2.384-2.394c0.882-1.035,0.765-2.252,0.206-3.372c-0.375-0.753-0.908-1.456-1.489-2.069
		c-1.253-1.321-2.583-2.57-3.882-3.85c0.018-0.087,0.035-0.174,0.052-0.262c1.051-0.113,2.104-0.341,3.153-0.321
		c6.043,0.112,10.45,5.011,10.023,11.045c-0.018,0.254,0.175,0.587,0.371,0.782c4.533,4.527,9.08,9.039,13.623,13.556
		c5.871,5.836,11.742,11.673,17.61,17.512c1.718,1.708,2.563,3.733,1.905,6.139c-0.627,2.289-2.107,3.878-4.449,4.476
		c-2.317,0.592-4.38,0.021-6.089-1.676c-10.482-10.411-20.96-20.827-31.43-31.252c-0.329-0.327-0.642-0.396-1.078-0.356
		c-6.804,0.614-12.396-6.158-10.5-12.703C215.679,177.158,215.726,177.039,215.792,176.846z M262.817,212.071
		c-2.746-0.002-4.968,2.191-4.968,4.904c0,2.711,2.223,4.905,4.968,4.903c2.748-0.002,4.97-2.193,4.97-4.903
		C267.787,214.267,265.564,212.072,262.817,212.071z M260,209.051c0.068-1.613-0.697-2.854-1.787-3.938
		c-6.477-6.443-12.958-12.882-19.433-19.326c-0.906-0.902-1.941-1.47-3.239-1.644c-2.958-0.395-5.731,1.951-5.813,4.936
		c-0.046,1.692,0.698,2.99,1.842,4.128c6.525,6.489,13.05,12.98,19.582,19.464c0.786,0.78,1.728,1.268,2.845,1.431
		C257.193,214.566,259.998,212.218,260,209.051z"/>
	<path fill-rule="evenodd" clip-rule="evenodd" d="M233.177,198.118c0.706,0.71,1.369,1.378,2.22,2.234
		c-0.219,0.132-0.492,0.233-0.68,0.42c-4.709,4.668-9.409,9.346-14.112,14.02c-0.398,0.396-0.77,0.788-0.435,1.409
		c0.395,0.729,1.175,0.834,1.795,0.22c1.763-1.745,3.531-3.485,5.276-5.248c3.141-3.174,6.267-6.362,9.352-9.497
		c0.891,0.909,1.668,1.703,2.569,2.623c-0.079,0.053-0.319,0.158-0.493,0.331c-4.725,4.684-9.443,9.374-14.162,14.064
		c-0.633,0.631-0.709,1.05-0.302,1.581c0.396,0.516,1.045,0.588,1.539,0.165c0.137-0.117,0.258-0.253,0.386-0.38
		c4.687-4.658,9.375-9.315,14.06-13.976c0.159-0.159,0.292-0.343,0.406-0.479c0.725,0.744,1.394,1.431,2.101,2.156
		c-0.091,0.096-0.269,0.291-0.456,0.477c-5.022,4.993-10.069,9.961-15.05,14.994c-1.159,1.172-2.463,1.447-3.882,0.987
		c-3.439-1.116-5.782-3.413-6.817-6.915c-0.404-1.365-0.093-2.564,0.99-3.628c5.083-4.995,10.12-10.037,15.174-15.062
		C232.816,198.459,232.98,198.307,233.177,198.118z"/>
	<path fill-rule="evenodd" clip-rule="evenodd" d="M250.855,194.281c-1.414-1.439-2.737-2.787-4.097-4.172
		c0.092-0.101,0.233-0.269,0.388-0.422c1.374-1.369,2.726-2.76,4.135-4.09c0.585-0.553,0.935-1.166,1.109-1.94
		c0.216-0.965,0.49-1.919,0.777-2.866c0.078-0.257,0.244-0.544,0.457-0.693c3.926-2.761,7.864-5.502,11.801-8.246
		c0.072-0.051,0.154-0.087,0.185-0.104c1.218,1.236,2.413,2.45,3.673,3.73c-0.029,0.048-0.136,0.238-0.26,0.414
		c-2.662,3.775-5.318,7.554-8,11.314c-0.201,0.281-0.564,0.472-0.888,0.633c-0.276,0.138-0.599,0.207-0.909,0.245
		c-2.214,0.271-3.912,1.381-5.332,3.07C252.967,192.256,251.889,193.228,250.855,194.281z"/>
	<path fill-rule="evenodd" clip-rule="evenodd" fill="#FFFFFF" d="M262.817,212.071c2.748,0.001,4.97,2.195,4.97,4.904
		c0,2.71-2.223,4.901-4.97,4.903c-2.746,0.002-4.968-2.192-4.968-4.903C257.849,214.263,260.071,212.069,262.817,212.071z"/>
	<path fill-rule="evenodd" clip-rule="evenodd" fill="#FFFFFF" d="M260,209.051c-0.002,3.167-2.807,5.516-6.004,5.05
		c-1.117-0.163-2.059-0.65-2.845-1.431c-6.531-6.483-13.056-12.975-19.582-19.464c-1.144-1.138-1.888-2.436-1.842-4.128
		c0.082-2.984,2.855-5.33,5.813-4.936c1.298,0.174,2.333,0.741,3.239,1.644c6.475,6.444,12.957,12.883,19.433,19.326
		C259.304,206.196,260.068,207.438,260,209.051z M230.668,189.56c-0.003,1.401,0.793,2.6,1.863,3.663
		c6.174,6.14,12.353,12.274,18.522,18.419c0.993,0.989,2.12,1.603,3.547,1.75c2.524,0.261,4.824-1.905,4.657-4.438
		c-0.1-1.514-0.82-2.685-1.858-3.717c-6.256-6.217-12.509-12.437-18.764-18.655c-0.967-0.961-2.126-1.483-3.495-1.553
		C232.66,184.902,230.496,186.996,230.668,189.56z"/>
	<path fill-rule="evenodd" clip-rule="evenodd" d="M230.668,189.56c-0.172-2.563,1.992-4.657,4.472-4.53
		c1.368,0.069,2.528,0.592,3.495,1.553c6.255,6.219,12.508,12.438,18.764,18.655c1.039,1.032,1.759,2.203,1.858,3.717
		c0.167,2.532-2.133,4.698-4.657,4.438c-1.427-0.147-2.555-0.761-3.547-1.75c-6.169-6.145-12.348-12.279-18.522-18.419
		C231.461,192.159,230.665,190.961,230.668,189.56z"/>
</g>
<g>
	<path d="M182.706,203.696c0.301-0.08,0.587-0.041,0.858,0.115c0.271,0.157,0.448,0.388,0.53,0.691
		c0.081,0.301,0.042,0.587-0.115,0.857c-0.157,0.271-0.385,0.448-0.686,0.528c-0.304,0.082-0.592,0.044-0.863-0.112
		c-0.272-0.157-0.448-0.385-0.528-0.686c-0.082-0.304-0.044-0.593,0.113-0.863C182.172,203.956,182.402,203.778,182.706,203.696z
		 M183.389,206.358c0.097-0.026,0.177-0.019,0.239,0.024c0.062,0.042,0.114,0.122,0.16,0.243c0.08,0.24,0.143,0.412,0.188,0.514
		c0.046,0.104,0.126,0.256,0.241,0.458c0.185,0.329,0.402,0.678,0.654,1.044c0.298,0.437,0.491,0.733,0.58,0.893
		c0.089,0.16,0.16,0.337,0.212,0.532c0.102,0.379,0.076,0.726-0.075,1.038c-0.152,0.312-0.391,0.512-0.718,0.6
		c-0.349,0.094-0.667,0.041-0.951-0.159c-0.286-0.199-0.483-0.508-0.595-0.924c-0.045-0.169-0.072-0.351-0.08-0.543
		c-0.007-0.193,0-0.492,0.021-0.896c0.036-0.72,0.041-1.236,0.013-1.55c-0.029-0.347-0.064-0.601-0.107-0.764
		C183.095,206.589,183.168,206.418,183.389,206.358z"/>
	<path d="M188.243,202.231l0.183,0.682c-0.212,0.094-0.352,0.234-0.417,0.427c-0.066,0.19-0.059,0.436,0.022,0.736l1.247,4.653
		l0.065,0.242c0.023,0.087,0.065,0.172,0.127,0.26c0.062,0.085,0.129,0.154,0.204,0.208c0.079,0.058,0.158,0.095,0.234,0.108
		c0.076,0.014,0.173,0.011,0.293-0.009l0.184,0.687c-0.729,0.195-1.413,0.176-2.051-0.06c-0.563-0.207-1.04-0.562-1.432-1.062
		c-0.392-0.501-0.691-1.138-0.899-1.912c-0.152-0.567-0.215-1.116-0.191-1.648c0.025-0.531,0.138-1.018,0.337-1.458
		c0.203-0.445,0.484-0.834,0.843-1.168c0.359-0.333,0.732-0.553,1.119-0.656L188.243,202.231z M188.873,202.8l-0.183-0.682
		c0.192-0.019,0.35-0.027,0.473-0.024c0.124,0.004,0.351,0.019,0.68,0.048c0.21,0.016,0.347,0.016,0.411-0.002
		c0.109-0.029,0.179-0.099,0.208-0.213l0.037-0.154c0.021-0.103,0.093-0.17,0.217-0.203c0.102-0.027,0.187-0.018,0.258,0.027
		c0.07,0.046,0.121,0.126,0.152,0.243l0.628,2.343c0.04,0.15,0.036,0.27-0.014,0.355c-0.049,0.084-0.118,0.14-0.204,0.162
		c-0.09,0.024-0.17,0.015-0.24-0.029c-0.069-0.043-0.14-0.126-0.208-0.249c-0.159-0.275-0.298-0.488-0.419-0.636
		c-0.257-0.314-0.519-0.555-0.784-0.72c-0.179-0.114-0.349-0.191-0.51-0.235C189.216,202.788,189.047,202.777,188.873,202.8z
		 M190.847,210.103l-0.184-0.688c0.287-0.101,0.565-0.294,0.835-0.58c0.144-0.154,0.259-0.342,0.345-0.561
		c0.087-0.219,0.135-0.446,0.144-0.682c0.006-0.129,0.026-0.227,0.064-0.291c0.036-0.064,0.097-0.108,0.179-0.13
		c0.091-0.024,0.174-0.011,0.253,0.041c0.078,0.051,0.131,0.128,0.158,0.229c0.045,0.168,0.035,0.391-0.03,0.665
		c-0.065,0.276-0.172,0.542-0.32,0.799c-0.182,0.314-0.387,0.567-0.616,0.757C191.446,209.854,191.17,210,190.847,210.103z"/>
	<path d="M197.065,208.273l-2.507,0.672l-0.146,0.039c-0.135,0.036-0.246,0.038-0.333,0.007c-0.087-0.03-0.144-0.093-0.168-0.188
		c-0.042-0.153,0.007-0.274,0.144-0.364c0.113-0.074,0.179-0.118,0.197-0.134s0.034-0.043,0.048-0.082
		c0.029-0.072,0.025-0.174-0.01-0.305l-1.511-5.641c-0.035-0.131-0.083-0.22-0.144-0.269c-0.032-0.028-0.059-0.044-0.083-0.048
		s-0.103-0.01-0.237-0.018c-0.163-0.008-0.266-0.091-0.308-0.244c-0.025-0.094-0.007-0.176,0.053-0.246
		c0.06-0.071,0.157-0.124,0.292-0.16l0.146-0.039l2.513-0.673l0.191-0.052c0.166-0.044,0.29-0.054,0.373-0.027
		c0.114,0.034,0.185,0.1,0.21,0.197c0.045,0.164-0.019,0.293-0.188,0.383c-0.137,0.072-0.218,0.118-0.241,0.137
		c-0.023,0.018-0.045,0.049-0.066,0.09c-0.039,0.084-0.039,0.195,0,0.338L197.065,208.273z M197.522,208.151l-0.169-0.632
		c0.175-0.083,0.311-0.159,0.407-0.229c0.096-0.069,0.182-0.157,0.259-0.262c0.124-0.167,0.223-0.376,0.296-0.63
		c0.073-0.253,0.115-0.524,0.126-0.812c0.005-0.224,0.024-0.375,0.057-0.454c0.032-0.079,0.098-0.132,0.196-0.158
		c0.104-0.028,0.193-0.006,0.265,0.067c0.034,0.036,0.067,0.115,0.101,0.238l0.615,2.295L197.522,208.151z"/>
	<path d="M203.218,206.625l-2.513,0.674l-0.146,0.039c-0.135,0.036-0.246,0.038-0.333,0.007c-0.086-0.03-0.143-0.093-0.168-0.188
		c-0.042-0.153,0.007-0.275,0.144-0.364c0.113-0.074,0.179-0.119,0.196-0.135c0.019-0.015,0.034-0.042,0.048-0.081
		c0.029-0.073,0.025-0.175-0.01-0.306l-1.511-5.64c-0.035-0.132-0.083-0.221-0.144-0.269c-0.032-0.028-0.059-0.044-0.083-0.049
		c-0.023-0.004-0.102-0.009-0.237-0.017c-0.163-0.009-0.266-0.091-0.308-0.244c-0.025-0.094-0.007-0.176,0.052-0.246
		c0.061-0.072,0.158-0.124,0.293-0.16l0.146-0.039l2.513-0.674l0.146-0.039c0.135-0.036,0.246-0.04,0.333-0.008
		c0.087,0.031,0.143,0.094,0.168,0.188c0.042,0.153-0.007,0.276-0.144,0.365c-0.113,0.074-0.179,0.118-0.197,0.133
		c-0.018,0.016-0.034,0.043-0.047,0.083c-0.029,0.073-0.026,0.174,0.009,0.306l1.511,5.64c0.035,0.131,0.084,0.221,0.145,0.269
		c0.032,0.027,0.059,0.043,0.082,0.047c0.023,0.005,0.103,0.011,0.237,0.019c0.163,0.009,0.266,0.09,0.307,0.243
		c0.025,0.095,0.007,0.177-0.052,0.246c-0.06,0.07-0.157,0.125-0.292,0.161L203.218,206.625z"/>
	<path d="M205.708,197.552l0.183,0.682c-0.213,0.094-0.352,0.235-0.417,0.428c-0.066,0.189-0.059,0.435,0.022,0.735l1.247,4.653
		l0.065,0.242c0.023,0.087,0.064,0.172,0.126,0.26c0.061,0.085,0.129,0.154,0.204,0.208c0.08,0.058,0.159,0.095,0.234,0.108
		c0.076,0.015,0.174,0.011,0.294-0.008l0.184,0.686c-0.729,0.195-1.413,0.176-2.051-0.06c-0.563-0.207-1.04-0.562-1.432-1.062
		c-0.392-0.501-0.691-1.138-0.899-1.912c-0.152-0.567-0.216-1.116-0.191-1.648c0.025-0.531,0.137-1.018,0.337-1.458
		c0.203-0.445,0.483-0.834,0.843-1.167c0.359-0.334,0.732-0.554,1.119-0.657L205.708,197.552z M206.337,198.12l-0.183-0.682
		c0.192-0.019,0.35-0.027,0.474-0.023c0.123,0.003,0.35,0.018,0.68,0.047c0.21,0.016,0.347,0.016,0.411-0.002
		c0.109-0.029,0.178-0.099,0.208-0.213l0.037-0.154c0.021-0.103,0.093-0.17,0.217-0.203c0.102-0.027,0.188-0.018,0.258,0.028
		c0.071,0.045,0.122,0.125,0.153,0.242l0.628,2.343c0.04,0.15,0.035,0.27-0.014,0.355c-0.05,0.085-0.118,0.14-0.204,0.162
		c-0.09,0.024-0.17,0.015-0.241-0.029c-0.07-0.043-0.14-0.126-0.208-0.249c-0.159-0.275-0.298-0.488-0.418-0.636
		c-0.257-0.314-0.519-0.555-0.785-0.72c-0.179-0.114-0.349-0.191-0.509-0.235C206.681,198.108,206.512,198.098,206.337,198.12z
		 M208.312,205.423l-0.184-0.687c0.287-0.102,0.565-0.295,0.835-0.581c0.143-0.154,0.258-0.341,0.345-0.561
		c0.086-0.219,0.134-0.445,0.144-0.682c0.005-0.129,0.026-0.227,0.063-0.29c0.037-0.065,0.098-0.109,0.18-0.131
		c0.09-0.024,0.174-0.011,0.252,0.041c0.078,0.051,0.131,0.128,0.158,0.229c0.045,0.168,0.035,0.391-0.03,0.666
		c-0.065,0.275-0.172,0.542-0.32,0.798c-0.182,0.314-0.387,0.567-0.616,0.757C208.91,205.175,208.634,205.32,208.312,205.423z"/>
	<path d="M214.654,203.561l-2.513,0.674l-0.146,0.039c-0.135,0.036-0.246,0.038-0.333,0.007c-0.086-0.03-0.143-0.093-0.168-0.188
		c-0.042-0.153,0.007-0.275,0.144-0.364c0.113-0.074,0.179-0.119,0.196-0.134c0.019-0.016,0.034-0.043,0.048-0.082
		c0.029-0.073,0.026-0.175-0.009-0.306l-1.511-5.64c-0.035-0.132-0.083-0.221-0.145-0.269c-0.032-0.028-0.059-0.044-0.083-0.048
		c-0.023-0.005-0.102-0.01-0.237-0.018c-0.163-0.009-0.266-0.091-0.308-0.244c-0.025-0.094-0.007-0.176,0.052-0.246
		c0.061-0.072,0.158-0.124,0.293-0.16l0.146-0.039l2.513-0.674l0.146-0.039c0.135-0.036,0.246-0.039,0.333-0.008
		s0.143,0.094,0.168,0.188c0.041,0.153-0.007,0.276-0.144,0.365c-0.113,0.074-0.179,0.118-0.197,0.133
		c-0.018,0.016-0.034,0.043-0.047,0.083c-0.029,0.073-0.026,0.174,0.009,0.306l1.511,5.64c0.056,0.21,0.144,0.319,0.263,0.327
		l0.19,0.01c0.154,0.008,0.253,0.089,0.295,0.246c0.053,0.196-0.055,0.33-0.321,0.401L214.654,203.561z M215.422,197.504
		l2.895,3.994c0.077,0.108,0.148,0.187,0.214,0.236c0.065,0.048,0.142,0.079,0.23,0.092c0.089,0.017,0.147,0.032,0.174,0.043
		c0.067,0.039,0.112,0.102,0.135,0.188c0.054,0.2-0.06,0.337-0.342,0.413l-2.833,0.759c-0.135,0.036-0.247,0.036-0.335-0.001
		c-0.088-0.036-0.146-0.107-0.174-0.213c-0.032-0.12,0.012-0.232,0.132-0.337c0.075-0.065,0.125-0.116,0.147-0.152
		c0.022-0.035,0.029-0.078,0.02-0.129c-0.007-0.026-0.038-0.081-0.094-0.167l-1.297-1.96c-0.121-0.181-0.2-0.341-0.237-0.479
		c-0.035-0.131-0.019-0.289,0.049-0.472l0.838-2.26c0.081-0.211,0.095-0.412,0.043-0.604c-0.028-0.104-0.083-0.195-0.163-0.271
		c-0.081-0.074-0.172-0.118-0.276-0.131l-0.226-0.029c-0.142-0.019-0.229-0.09-0.262-0.215c-0.027-0.1-0.01-0.193,0.051-0.279
		c0.042-0.054,0.123-0.099,0.243-0.131l2.005-0.537c0.131-0.035,0.242-0.034,0.33,0.004c0.09,0.039,0.148,0.111,0.176,0.216
		c0.042,0.158-0.014,0.295-0.168,0.407l-0.267,0.199c-0.112,0.078-0.243,0.223-0.393,0.431c-0.11,0.159-0.233,0.407-0.368,0.745
		L215.422,197.504z"/>
	<path d="M219.306,193.902c0.331-0.089,0.638-0.03,0.922,0.176c0.285,0.205,0.481,0.512,0.59,0.918
		c0.045,0.168,0.072,0.349,0.079,0.543c0.008,0.192,0.001,0.491-0.02,0.896c-0.032,0.572-0.04,1.023-0.026,1.356
		c0.015,0.332,0.054,0.651,0.121,0.955c0.033,0.156,0.033,0.272,0,0.351c-0.034,0.076-0.106,0.131-0.219,0.161
		c-0.098,0.026-0.178,0.019-0.239-0.024c-0.062-0.042-0.112-0.123-0.153-0.245c-0.09-0.246-0.156-0.418-0.199-0.519
		c-0.042-0.099-0.121-0.249-0.236-0.451c-0.184-0.329-0.403-0.679-0.654-1.046c-0.297-0.431-0.491-0.729-0.581-0.895
		c-0.091-0.164-0.164-0.353-0.22-0.563c-0.091-0.338-0.067-0.662,0.07-0.973C218.683,194.215,218.938,194.001,219.306,193.902z
		 M220.834,199.719c0.301-0.081,0.586-0.043,0.858,0.114c0.271,0.156,0.447,0.386,0.528,0.687c0.081,0.304,0.043,0.591-0.113,0.863
		c-0.157,0.271-0.386,0.446-0.686,0.527c-0.304,0.081-0.592,0.044-0.863-0.112c-0.272-0.157-0.448-0.388-0.53-0.691
		c-0.08-0.301-0.042-0.587,0.114-0.858C220.299,199.976,220.53,199.8,220.834,199.719z"/>
</g>
<g>
	<path d="M263.782,191.23l-0.183,0.682c-0.229-0.025-0.423,0.027-0.575,0.16c-0.153,0.132-0.268,0.349-0.349,0.648l-1.247,4.653
		l-0.065,0.243c-0.023,0.086-0.029,0.183-0.02,0.287c0.01,0.105,0.034,0.199,0.072,0.282c0.041,0.092,0.09,0.162,0.148,0.212
		c0.06,0.05,0.146,0.097,0.259,0.139l-0.184,0.688c-0.729-0.195-1.311-0.555-1.746-1.078c-0.384-0.461-0.62-1.006-0.709-1.636
		c-0.09-0.63-0.029-1.332,0.178-2.105c0.152-0.566,0.371-1.074,0.658-1.523c0.288-0.448,0.628-0.812,1.021-1.094
		c0.398-0.283,0.836-0.48,1.315-0.59c0.478-0.109,0.91-0.112,1.297-0.009L263.782,191.23z M262.102,199.349l0.184-0.688
		c0.299,0.056,0.637,0.027,1.013-0.085c0.202-0.062,0.395-0.167,0.58-0.312c0.184-0.146,0.338-0.319,0.465-0.519
		c0.069-0.11,0.137-0.184,0.2-0.222c0.064-0.036,0.139-0.044,0.221-0.022c0.091,0.024,0.157,0.078,0.198,0.162
		c0.042,0.084,0.049,0.177,0.022,0.277c-0.046,0.17-0.165,0.356-0.359,0.562s-0.42,0.383-0.677,0.531
		c-0.313,0.182-0.617,0.298-0.911,0.348S262.433,199.421,262.102,199.349z M264.043,192.036l0.182-0.681
		c0.177,0.079,0.318,0.151,0.423,0.216c0.106,0.064,0.295,0.191,0.565,0.381c0.174,0.118,0.293,0.188,0.356,0.204
		c0.109,0.029,0.204,0.002,0.287-0.081l0.109-0.115c0.07-0.078,0.166-0.1,0.29-0.066c0.102,0.026,0.172,0.077,0.209,0.152
		c0.039,0.074,0.043,0.17,0.012,0.286l-0.628,2.344c-0.041,0.15-0.104,0.25-0.19,0.3c-0.084,0.049-0.171,0.062-0.257,0.039
		c-0.091-0.023-0.155-0.072-0.193-0.145c-0.039-0.072-0.059-0.18-0.058-0.32c0.002-0.318-0.014-0.571-0.043-0.761
		c-0.065-0.4-0.173-0.738-0.319-1.016c-0.099-0.187-0.207-0.34-0.324-0.458S264.206,192.104,264.043,192.036z"/>
	<path d="M268.402,200.873l-2.508-0.672l-0.146-0.039c-0.137-0.036-0.233-0.09-0.293-0.159c-0.059-0.07-0.076-0.152-0.051-0.246
		c0.041-0.154,0.143-0.236,0.307-0.244c0.134-0.009,0.214-0.015,0.237-0.018c0.022-0.004,0.049-0.021,0.082-0.049
		c0.061-0.047,0.109-0.137,0.145-0.269l1.511-5.64c0.035-0.132,0.038-0.233,0.01-0.305c-0.015-0.041-0.03-0.067-0.048-0.082
		c-0.018-0.016-0.084-0.061-0.195-0.135c-0.139-0.09-0.186-0.211-0.145-0.365c0.025-0.094,0.082-0.155,0.168-0.188
		c0.086-0.03,0.196-0.028,0.333,0.008l0.146,0.04l2.514,0.673l0.191,0.052c0.165,0.044,0.276,0.098,0.337,0.163
		c0.081,0.086,0.108,0.178,0.082,0.275c-0.044,0.165-0.161,0.244-0.353,0.237c-0.156-0.006-0.248-0.006-0.277-0.001
		c-0.029,0.003-0.063,0.018-0.103,0.044c-0.074,0.053-0.131,0.149-0.169,0.293L268.402,200.873z M268.857,200.995l0.17-0.631
		c0.194,0.016,0.349,0.018,0.466,0.004c0.12-0.012,0.237-0.045,0.356-0.098c0.191-0.082,0.381-0.214,0.572-0.396
		c0.188-0.183,0.361-0.396,0.515-0.641c0.116-0.189,0.208-0.312,0.275-0.363c0.068-0.053,0.152-0.065,0.249-0.039
		c0.105,0.027,0.17,0.092,0.197,0.191c0.011,0.047-0.001,0.133-0.033,0.257l-0.615,2.293L268.857,200.995z"/>
	<path d="M275.021,195.938l-0.025,1.242l-1.973,3.373c-0.059,0.097-0.099,0.19-0.123,0.28c-0.063,0.237,0.003,0.436,0.196,0.597
		l0.173,0.143c0.108,0.09,0.146,0.2,0.111,0.332c-0.051,0.188-0.214,0.244-0.487,0.171l-1.432-0.384
		c-0.14-0.037-0.241-0.096-0.307-0.175c-0.064-0.08-0.084-0.171-0.057-0.272c0.029-0.108,0.138-0.177,0.321-0.204
		c0.172-0.026,0.302-0.057,0.389-0.091c0.089-0.035,0.179-0.091,0.272-0.166c0.146-0.126,0.287-0.308,0.423-0.545L275.021,195.938z
		 M275.792,194.611l2.271,0.608l-0.207,7.039c-0.001,0.124,0.005,0.237,0.018,0.337c0.015,0.081,0.074,0.159,0.179,0.235
		c0.087,0.067,0.144,0.127,0.169,0.179c0.027,0.051,0.03,0.112,0.012,0.184c-0.053,0.195-0.225,0.254-0.519,0.175l-2.811-0.753
		c-0.112-0.03-0.195-0.082-0.248-0.154s-0.067-0.153-0.044-0.243c0.021-0.076,0.051-0.129,0.092-0.157
		c0.039-0.03,0.119-0.06,0.239-0.087c0.086-0.018,0.149-0.045,0.191-0.082c0.043-0.036,0.072-0.089,0.091-0.156
		c0.017-0.064,0.026-0.122,0.028-0.174l0.038-0.865l-1.572-0.422l0.331-0.629l1.263,0.338l0.19-4.857L275.792,194.611z"/>
	<path d="M283.816,196.599l-0.183,0.682c-0.23-0.025-0.423,0.027-0.574,0.16c-0.153,0.132-0.269,0.348-0.349,0.648l-1.247,4.654
		l-0.065,0.242c-0.023,0.086-0.029,0.182-0.02,0.287c0.009,0.105,0.034,0.199,0.072,0.281c0.04,0.092,0.089,0.162,0.148,0.213
		c0.059,0.05,0.145,0.096,0.259,0.139l-0.185,0.688c-0.729-0.195-1.311-0.555-1.746-1.078c-0.383-0.461-0.62-1.006-0.709-1.637
		c-0.089-0.629-0.029-1.331,0.178-2.104c0.152-0.566,0.371-1.075,0.659-1.523c0.287-0.448,0.627-0.812,1.02-1.094
		c0.398-0.284,0.837-0.481,1.315-0.591c0.478-0.108,0.91-0.111,1.298-0.008L283.816,196.599z M282.135,204.716l0.185-0.688
		c0.3,0.057,0.637,0.028,1.015-0.084c0.201-0.062,0.394-0.168,0.578-0.312c0.184-0.146,0.339-0.319,0.465-0.519
		c0.07-0.11,0.137-0.184,0.2-0.222c0.064-0.037,0.139-0.044,0.221-0.022c0.091,0.024,0.157,0.078,0.198,0.162
		c0.043,0.084,0.051,0.177,0.023,0.277c-0.046,0.169-0.166,0.356-0.359,0.562c-0.195,0.206-0.421,0.383-0.677,0.531
		c-0.313,0.181-0.618,0.298-0.912,0.347C282.778,204.8,282.467,204.789,282.135,204.716z M284.076,197.404l0.184-0.681
		c0.175,0.078,0.316,0.15,0.422,0.216c0.105,0.063,0.294,0.191,0.564,0.38c0.174,0.119,0.294,0.188,0.356,0.205
		c0.109,0.029,0.204,0.002,0.287-0.081l0.11-0.115c0.069-0.078,0.165-0.101,0.289-0.067c0.102,0.027,0.172,0.078,0.209,0.152
		c0.039,0.075,0.043,0.171,0.012,0.287l-0.628,2.344c-0.041,0.15-0.104,0.25-0.189,0.299c-0.085,0.05-0.172,0.063-0.258,0.04
		c-0.091-0.024-0.155-0.072-0.193-0.146c-0.039-0.072-0.058-0.18-0.057-0.319c0.001-0.318-0.015-0.571-0.044-0.761
		c-0.065-0.4-0.172-0.738-0.319-1.016c-0.099-0.188-0.207-0.34-0.324-0.459C284.38,197.565,284.24,197.473,284.076,197.404z"/>
	<path d="M288.56,206.274l-2.514-0.674l-0.146-0.039c-0.135-0.036-0.233-0.09-0.292-0.159c-0.06-0.07-0.077-0.152-0.052-0.246
		c0.041-0.154,0.144-0.235,0.307-0.245c0.135-0.008,0.214-0.014,0.237-0.018c0.023-0.003,0.05-0.02,0.083-0.047
		c0.06-0.048,0.108-0.138,0.144-0.27l1.511-5.64c0.035-0.132,0.038-0.233,0.011-0.305c-0.015-0.04-0.03-0.067-0.048-0.083
		c-0.019-0.014-0.085-0.059-0.197-0.134c-0.137-0.089-0.185-0.21-0.144-0.364c0.025-0.094,0.081-0.156,0.169-0.188
		c0.085-0.031,0.197-0.028,0.332,0.008l0.146,0.039l2.514,0.673l0.146,0.04c0.136,0.036,0.233,0.089,0.293,0.159
		c0.059,0.07,0.077,0.152,0.052,0.246c-0.041,0.154-0.143,0.235-0.308,0.244c-0.134,0.009-0.214,0.015-0.236,0.019
		s-0.05,0.02-0.082,0.047c-0.062,0.048-0.109,0.138-0.145,0.27l-1.511,5.639c-0.057,0.211-0.035,0.35,0.063,0.416l0.159,0.104
		c0.131,0.083,0.175,0.203,0.133,0.361c-0.053,0.195-0.212,0.257-0.479,0.186L288.56,206.274z M292.253,201.413l0.51,4.906
		c0.013,0.133,0.034,0.236,0.066,0.311c0.033,0.076,0.084,0.141,0.154,0.195c0.068,0.059,0.112,0.101,0.13,0.126
		c0.037,0.066,0.045,0.143,0.021,0.229c-0.053,0.199-0.221,0.261-0.503,0.185l-2.833-0.759c-0.135-0.036-0.232-0.093-0.289-0.168
		c-0.059-0.076-0.074-0.167-0.046-0.271c0.032-0.121,0.128-0.196,0.284-0.227c0.098-0.018,0.164-0.037,0.202-0.057
		c0.038-0.021,0.065-0.055,0.082-0.103c0.007-0.026,0.008-0.091,0.003-0.192l-0.145-2.345c-0.014-0.218-0.002-0.396,0.035-0.535
		c0.035-0.131,0.128-0.259,0.277-0.384l1.855-1.538c0.176-0.143,0.288-0.31,0.34-0.501c0.027-0.104,0.025-0.21-0.007-0.315
		c-0.031-0.104-0.09-0.188-0.175-0.252l-0.179-0.139c-0.114-0.087-0.154-0.192-0.121-0.315c0.027-0.102,0.089-0.174,0.185-0.217
		c0.064-0.027,0.155-0.025,0.276,0.008l2.006,0.537c0.131,0.035,0.226,0.092,0.283,0.17c0.058,0.077,0.073,0.17,0.045,0.274
		c-0.042,0.157-0.159,0.247-0.351,0.269l-0.33,0.038c-0.137,0.012-0.32,0.071-0.555,0.177c-0.176,0.082-0.406,0.236-0.691,0.461
		L292.253,201.413z"/>
</g>
<g>
	<path fill="#FFFFFF" d="M17.675,30.419c-0.059-0.027-0.117-0.053-0.176-0.079c-1.504,3.297-3.016,6.589-4.51,9.89
		c-1.683,3.718-1.395,7.217,1.133,10.5c1.311,1.705,2.527,3.48,3.789,5.223c6.792,9.393,13.591,18.782,20.375,28.184
		c0.991,1.373,2.134,2.455,3.936,2.543c3.686,0.183,6.107-3.347,4.588-6.799c-1.755-3.987-3.629-7.924-5.417-11.897
		c-0.875-1.944-0.383-3.723,0.96-5.248c1.214-1.378,3.422-1.737,5.24-0.989c10.684,4.391,21.365,8.787,32.048,13.18
		c5.051,2.076,10.095,4.165,15.157,6.213c2.445,0.988,5.022,0.005,6.167-2.269c1.138-2.257,0.299-4.898-1.989-6.229
		c-0.907-0.527-1.828-1.033-2.748-1.539c-9.379-5.166-18.748-10.35-28.152-15.469c-1.045-0.569-1.306-1.216-1.278-2.345
		c0.127-5.398,0.174-10.798,0.208-16.198c0.014-2.199,0.111-4.422-0.158-6.592c-0.455-3.675-2.666-6.198-6.123-7.299
		c-9.098-2.896-18.244-5.641-27.387-8.395c-3.854-1.161-8.301,0.358-10.244,3.91C21.032,22.477,19.46,26.507,17.675,30.419z
		 M114.669,78.231c0.113-0.977,0.222-1.493,0.227-2.012c0.107-9.553-7.444-17.651-17.011-18.258
		c-1.905-0.121-3.151,0.771-3.297,2.355c-0.149,1.629,1.011,2.824,2.878,2.963c6.7,0.5,11.646,5.539,12.064,12.266
		c0.044,0.725,0.13,1.469,0.347,2.156c0.319,1.006,0.949,1.913,2.138,1.658C112.995,79.149,113.895,78.574,114.669,78.231z
		 M88.511,93.62c6.767,2.757,14.313,1.694,19.771-3.012c1.674-1.443,1.813-3.316,0.34-4.577c-1.012-0.865-2.304-0.628-4.087,0.753
		c-5.554,4.298-12.548,3.869-17.531-1.077c-1.169-1.161-2.782-1.225-3.899-0.154c-1.068,1.023-1.166,2.71,0.042,3.795
		C84.843,90.873,86.715,92.206,88.511,93.62z"/>
	<path fill-rule="evenodd" clip-rule="evenodd" d="M17.675,30.419c1.785-3.912,3.357-7.942,5.418-11.705
		c1.943-3.552,6.391-5.071,10.244-3.91c9.143,2.754,18.289,5.498,27.387,8.395c3.457,1.101,5.668,3.624,6.123,7.299
		c0.27,2.17,0.172,4.393,0.158,6.592c-0.034,5.4-0.081,10.8-0.208,16.198c-0.027,1.129,0.233,1.775,1.278,2.345
		c9.404,5.119,18.773,10.303,28.152,15.469c0.92,0.506,1.841,1.012,2.748,1.539c2.288,1.331,3.127,3.973,1.989,6.229
		c-1.145,2.273-3.722,3.257-6.167,2.269c-5.062-2.048-10.106-4.137-15.157-6.213c-10.683-4.393-21.364-8.789-32.048-13.18
		c-1.818-0.748-4.026-0.389-5.24,0.989c-1.343,1.525-1.835,3.304-0.96,5.248c1.788,3.974,3.662,7.91,5.417,11.897
		c1.52,3.452-0.902,6.981-4.588,6.799c-1.802-0.088-2.944-1.17-3.936-2.543c-6.784-9.401-13.583-18.791-20.375-28.184
		c-1.262-1.742-2.479-3.518-3.789-5.223c-2.527-3.283-2.815-6.782-1.133-10.5c1.494-3.301,3.006-6.593,4.51-9.89
		C17.558,30.366,17.616,30.392,17.675,30.419z"/>
	<path fill-rule="evenodd" clip-rule="evenodd" d="M114.669,78.231c-0.774,0.343-1.674,0.918-2.654,1.129
		c-1.188,0.255-1.818-0.652-2.138-1.658c-0.217-0.688-0.303-1.432-0.347-2.156c-0.418-6.727-5.364-11.766-12.064-12.266
		c-1.867-0.139-3.027-1.334-2.878-2.963c0.146-1.585,1.392-2.477,3.297-2.355c9.566,0.606,17.118,8.705,17.011,18.258
		C114.891,76.738,114.782,77.255,114.669,78.231z"/>
	<path fill-rule="evenodd" clip-rule="evenodd" d="M88.511,93.62c-1.796-1.414-3.668-2.747-5.364-4.272
		c-1.208-1.085-1.11-2.771-0.042-3.795c1.117-1.07,2.73-1.007,3.899,0.154c4.983,4.946,11.978,5.375,17.531,1.077
		c1.783-1.381,3.075-1.618,4.087-0.753c1.474,1.261,1.334,3.134-0.34,4.577C102.824,95.314,95.277,96.377,88.511,93.62z"/>
</g>
<g>
	<path fill="#FFFFFF" d="M125.117,58.002c0.056-0.133,0.072-0.16,0.078-0.19c0.618-2.712,1.985-5.002,4.144-6.725
		c3.161-2.522,6.783-3.364,10.721-2.339c3.819,0.994,6.521,3.378,8.12,6.994c0.993,2.246,1.022,4.619,0.916,7.01
		c-0.001,0.025-0.038,0.049-0.103,0.126c-1.497,0-3.038,0-4.537,0c3.196,3.196,6.387,6.387,9.537,9.538
		c3.143-3.143,6.325-6.324,9.549-9.549c-1.562,0-3.113,0-4.758,0c0.221-3.496-0.142-6.836-1.714-9.943
		c-1.569-3.102-3.862-5.541-6.895-7.258c-3.035-1.719-6.316-2.409-9.776-2.111C131.883,44.291,126.009,51.042,125.117,58.002z"/>
	<path fill-rule="evenodd" clip-rule="evenodd" d="M125.117,58.002c0.892-6.96,6.766-13.711,15.282-14.447
		c3.46-0.298,6.741,0.393,9.776,2.111c3.032,1.717,5.325,4.156,6.895,7.258c1.572,3.107,1.935,6.447,1.714,9.943
		c1.645,0,3.196,0,4.758,0c-3.224,3.225-6.406,6.406-9.549,9.549c-3.15-3.151-6.341-6.342-9.537-9.538c1.499,0,3.04,0,4.537,0
		c0.064-0.077,0.102-0.101,0.103-0.126c0.106-2.391,0.077-4.764-0.916-7.01c-1.6-3.616-4.301-6-8.12-6.994
		c-3.938-1.025-7.56-0.184-10.721,2.339c-2.158,1.723-3.525,4.013-4.144,6.725C125.189,57.842,125.173,57.869,125.117,58.002z"/>
</g>
<g>
	<path fill="#FFFFFF" d="M199.182,60.509c-0.123,0.019-0.201,0.03-0.279,0.04c-2.697,0.322-5.218,1.222-7.486,2.663
		c-4.383,2.785-7.237,6.744-8.41,11.823c-0.963,4.169-0.457,8.254,1.002,12.242c0.242,0.664,0.545,1.307,0.832,1.984
		c0.049-0.059,0.065-0.068,0.065-0.078c-0.003-0.144-0.008-0.286-0.013-0.431c-0.145-3.966,0.686-7.696,3.104-10.885
		c3.188-4.204,7.533-6.185,12.803-6.115c0.859,0.011,0.656-0.08,0.826,0.712c0.282,1.312,0.542,2.629,0.81,3.944
		c0.071,0.35,0.22,0.638,0.593,0.74c0.375,0.101,0.492-0.208,0.663-0.43c0.997-1.286,1.994-2.575,2.993-3.86
		c2.312-2.975,4.629-5.948,6.939-8.925c0.343-0.442,0.238-0.823-0.273-1.086c-0.441-0.225-0.889-0.439-1.32-0.681
		c-4.309-2.414-8.613-4.836-12.92-7.252c-0.48-0.27-0.902-0.041-0.936,0.517c-0.009,0.155,0.033,0.315,0.064,0.472
		C198.548,57.422,198.859,58.939,199.182,60.509z"/>
	<path fill-rule="evenodd" clip-rule="evenodd" d="M199.182,60.509c-0.322-1.569-0.634-3.087-0.943-4.604
		c-0.031-0.156-0.073-0.316-0.064-0.472c0.033-0.558,0.455-0.786,0.936-0.517c4.307,2.416,8.611,4.838,12.92,7.252
		c0.432,0.241,0.879,0.456,1.32,0.681c0.512,0.263,0.616,0.644,0.273,1.086c-2.311,2.977-4.627,5.95-6.939,8.925
		c-0.999,1.285-1.996,2.574-2.993,3.86c-0.171,0.222-0.288,0.53-0.663,0.43c-0.373-0.103-0.521-0.391-0.593-0.74
		c-0.268-1.315-0.527-2.632-0.81-3.944c-0.17-0.792,0.033-0.701-0.826-0.712c-5.27-0.069-9.615,1.911-12.803,6.115
		c-2.418,3.188-3.248,6.919-3.104,10.885c0.005,0.145,0.01,0.287,0.013,0.431c0,0.01-0.017,0.02-0.065,0.078
		c-0.287-0.678-0.59-1.32-0.832-1.984c-1.459-3.988-1.965-8.073-1.002-12.242c1.173-5.079,4.027-9.038,8.41-11.823
		c2.269-1.441,4.789-2.341,7.486-2.663C198.98,60.539,199.059,60.527,199.182,60.509z"/>
</g>
<g>
	<path fill="#FFFFFF" d="M293.072,180.91c0.113-0.054,0.184-0.088,0.256-0.12c2.484-1.1,4.63-2.698,6.376-4.742
		c3.373-3.948,4.94-8.57,4.572-13.77c-0.302-4.269-1.983-8.025-4.549-11.41c-0.426-0.563-0.904-1.09-1.377-1.653
		c-0.029,0.07-0.043,0.085-0.04,0.094c0.045,0.137,0.092,0.271,0.139,0.408c1.301,3.749,1.602,7.559,0.226,11.316
		c-1.813,4.954-5.388,8.122-10.446,9.602c-0.824,0.242-0.604,0.27-0.998-0.438c-0.655-1.172-1.289-2.354-1.932-3.534
		c-0.17-0.312-0.396-0.545-0.783-0.533c-0.389,0.014-0.41,0.344-0.508,0.605c-0.576,1.521-1.151,3.047-1.729,4.568
		c-1.339,3.522-2.681,7.045-4.017,10.568c-0.197,0.523,0.014,0.856,0.58,0.957c0.487,0.086,0.979,0.16,1.462,0.264
		c4.827,1.044,9.652,2.097,14.479,3.144c0.538,0.116,0.874-0.226,0.743-0.769c-0.037-0.15-0.125-0.291-0.2-0.432
		C294.584,183.675,293.841,182.315,293.072,180.91z"/>
	<path fill-rule="evenodd" clip-rule="evenodd" d="M293.072,180.91c0.769,1.405,1.512,2.765,2.253,4.125
		c0.075,0.141,0.163,0.281,0.2,0.432c0.131,0.543-0.205,0.885-0.743,0.769c-4.826-1.047-9.651-2.1-14.479-3.144
		c-0.483-0.104-0.975-0.178-1.462-0.264c-0.566-0.101-0.777-0.434-0.58-0.957c1.336-3.523,2.678-7.046,4.017-10.568
		c0.578-1.521,1.153-3.047,1.729-4.568c0.098-0.262,0.119-0.592,0.508-0.605c0.387-0.012,0.613,0.221,0.783,0.533
		c0.643,1.18,1.276,2.362,1.932,3.534c0.395,0.708,0.174,0.681,0.998,0.438c5.059-1.479,8.633-4.647,10.446-9.602
		c1.376-3.758,1.075-7.567-0.226-11.316c-0.047-0.137-0.094-0.271-0.139-0.408c-0.003-0.009,0.011-0.023,0.04-0.094
		c0.473,0.563,0.951,1.09,1.377,1.653c2.565,3.385,4.247,7.142,4.549,11.41c0.368,5.199-1.199,9.821-4.572,13.77
		c-1.746,2.044-3.892,3.643-6.376,4.742C293.256,180.822,293.186,180.856,293.072,180.91z"/>
</g>
<rect fill="none" stroke="#000000" stroke-miterlimit="10" width="319.425" height="226.321"/>
</svg>
