<?xml version="1.0" encoding="utf-8"?>
<!-- Generator: Adobe Illustrator 16.0.0, SVG Export Plug-In . SVG Version: 6.00 Build 0)  -->
<!DOCTYPE svg PUBLIC "-//W3C//DTD SVG 1.1//EN" "http://www.w3.org/Graphics/SVG/1.1/DTD/svg11.dtd">
<svg version="1.1" id="Capa_1" xmlns="http://www.w3.org/2000/svg" xmlns:xlink="http://www.w3.org/1999/xlink" x="0px" y="0px"
	 width="150.666px" height="89px" viewBox="0 0 150.666 89" enable-background="new 0 0 150.666 89" xml:space="preserve">
<g>
	<g>
		<g>
			<path d="M74,24.303v5.076c3.528-3.905,7.534-5.857,12.019-5.857c2.487,0,4.802,0.645,6.942,1.931
				c2.141,1.288,3.768,3.053,4.881,5.294c1.113,2.242,1.672,5.793,1.672,10.652v22.824h-7.897V41.485
				c0-4.079-0.623-6.992-1.866-8.743c-1.244-1.75-3.327-2.625-6.248-2.625c-3.731,0-6.899,1.865-9.502,5.598v28.508h-8.071v-39.92
				H74z"/>
		</g>
		<g>
			<circle fill="none" stroke="#FFFFFF" stroke-width="7.5" stroke-miterlimit="10" cx="23.134" cy="43.978" r="18.75"/>
			
				<line fill="none" stroke="#000000" stroke-width="7.5" stroke-miterlimit="10" x1="41.884" y1="23.265" x2="41.884" y2="43.978"/>
			
				<line fill="none" stroke="#000000" stroke-width="7.5" stroke-miterlimit="10" x1="142.138" y1="43.871" x2="142.138" y2="64.584"/>
		</g>
		<g>
			<circle fill="none" stroke="#000000" stroke-width="7.5" stroke-miterlimit="10" cx="123.388" cy="42.176" r="18.75"/>
			<path fill="none" stroke="#000000" stroke-width="7.5" stroke-miterlimit="10" d="M60.634,4.515
				c-10.356,0-18.75,8.396-18.75,18.75"/>
			<circle fill="none" stroke="#000000" stroke-width="7.5" stroke-miterlimit="10" cx="23.134" cy="43.978" r="18.75"/>
			
				<line fill="none" stroke="#000000" stroke-width="7.5" stroke-miterlimit="10" x1="41.884" y1="23.265" x2="41.884" y2="43.978"/>
			<path fill="none" stroke="#000000" stroke-width="7.5" stroke-miterlimit="10" d="M124.729,82.316
				c9.729-0.689,17.408-8.799,17.408-18.703"/>
		</g>
		<g>
			<rect x="47.135" y="33.621" width="7.896" height="30.602"/>
			<path d="M51.015,24.303c1.104,0,2.047,0.38,2.831,1.14s1.177,1.691,1.177,2.794c0,1.08-0.393,2.012-1.177,2.795
				c-0.784,0.785-1.728,1.178-2.831,1.178c-1.029,0-1.938-0.398-2.722-1.195s-1.177-1.723-1.177-2.777
				c0-1.029,0.393-1.942,1.177-2.739C49.077,24.701,49.985,24.303,51.015,24.303z"/>
		</g>
		<g>
			<rect x="56.531" y="33.621" width="7.897" height="30.602"/>
			<path d="M60.412,24.303c1.103,0,2.046,0.38,2.831,1.14c0.784,0.76,1.177,1.691,1.177,2.794c0,1.08-0.393,2.012-1.177,2.795
				c-0.785,0.785-1.729,1.178-2.831,1.178c-1.029,0-1.938-0.398-2.722-1.195s-1.177-1.723-1.177-2.777
				c0-1.029,0.393-1.942,1.177-2.739C58.475,24.701,59.383,24.303,60.412,24.303z"/>
		</g>
	</g>
</g>
</svg>
